<?xml version="1.0" encoding="UTF-8"?>
<svg width="725px" height="91px" viewBox="0 0 725 91" version="1.1" xmlns="http://www.w3.org/2000/svg" xmlns:xlink="http://www.w3.org/1999/xlink">
    <!-- Generator: Sketch 64 (93537) - https://sketch.com -->
    <title>Group 3</title>
    <desc>Created with Sketch.</desc>
    <defs>
      <style>
        @import url("https://fonts.googleapis.com/css2?family=Ubuntu+Mono:wght@400;700&display=swap");
      </style>
    </defs>
    <g id="Page-1" stroke="none" stroke-width="1" fill="none" fill-rule="evenodd">
        <g id="Group-3" transform="translate(0.000000, -19.000000)">
            <g id="Group-2" transform="translate(143.000000, 0.000000)" font-family="UbuntuMono-Bold, Ubuntu Mono" font-size="110" font-weight="bold" letter-spacing="-4.73">
                <text id="spangoss" fill="#FFFFFF">
                    <tspan x="0.42" y="91">spangoss</tspan>
                </text>
                <text id="net" fill="#FFFFFF">
                    <tspan x="430.095" y="91">net</tspan>
                </text>
                <text id="." fill="#09B0B2">
                    <tspan x="390.365" y="91">.</tspan>
                </text>
            </g>
            <g id="Group" transform="translate(0.000000, 19.000000)">
                <path d="M41.7266175,0 C39.9423733,0 42.9125635,0 32.1961767,0 C21.4797898,0 12.8343849,8.69328584 12.8343849,19.4657124 C12.8343849,30.238139 12.8343849,25.2856881 12.8343849,27.0161866 C12.8343849,28.7466851 12.1117798,30.238139 11.0016987,31.5310994 C9.89161767,32.8240599 4.39341643,38.5207423 1.88289275,40.9208592 C-0.627630918,43.320976 -0.627630918,47.4459035 1.88289275,49.9335187 C4.39341643,52.4211338 9.90668001,57.9736255 11.0016987,59.0674171 C12.0967175,60.1612086 12.8343849,61.9979973 12.8343849,63.8321307 C12.8343849,65.6662641 12.8343849,60.5607064 12.8343849,71.3084063 C12.8343849,82.0561062 20.8833275,90.7908516 32.1961767,90.7908516 C43.5090258,90.7908516 39.9442091,91.2614355 41.7266175,90.7908516 C43.5090258,90.3202676 45,89.2710701 45,87.4104399 C45,85.5498096 45,82.7833207 45,80.9408535 C45,79.0983863 43.5170672,77.7438234 41.7266175,77.7438234 C39.9361677,77.7438234 35.7801329,77.7438234 32.1961767,77.7438234 C28.6122204,77.7438234 25.636175,75.0045022 25.636175,71.3084063 C25.636175,67.6123103 25.636175,69.2194457 25.636175,63.8321307 C25.636175,58.4448157 23.6457654,53.5938476 20.1018877,49.9335187 C17.7393026,47.4932994 16.2031515,45.9806018 15.4934342,45.3954258 C16.1460403,45.0037867 17.6821915,43.5122645 20.1018877,40.9208592 C23.7314321,37.0337512 25.636175,32.2078917 25.636175,27.0161866 C25.636175,21.8244815 25.636175,23.1833836 25.636175,19.4657124 C25.636175,15.7480412 28.6635393,12.9448979 32.1961767,12.9448979 C35.728814,12.9448979 39.9815068,12.9448979 41.7266175,12.9448979 C43.4717281,12.9448979 45,11.3735901 45,9.76061547 C45,8.14764084 45,5.06917347 45,3.26892627 C45,1.46867907 43.5108616,0 41.7266175,0 Z" id="Path" fill="#BF1D90"></path>
                <path d="M114.726617,0 C112.942373,0 115.912563,0 105.196177,0 C94.4797898,0 85.8343849,8.69328584 85.8343849,19.4657124 C85.8343849,30.238139 85.8343849,25.2856881 85.8343849,27.0161866 C85.8343849,28.7466851 85.1117798,30.238139 84.0016987,31.5310994 C82.8916177,32.8240599 77.3934164,38.5207423 74.8828928,40.9208592 C72.3723691,43.320976 72.3723691,47.4459035 74.8828928,49.9335187 C77.3934164,52.4211338 82.90668,57.9736255 84.0016987,59.0674171 C85.0967175,60.1612086 85.8343849,61.9979973 85.8343849,63.8321307 C85.8343849,65.6662641 85.8343849,60.5607064 85.8343849,71.3084063 C85.8343849,82.0561062 93.8833275,90.7908516 105.196177,90.7908516 C116.509026,90.7908516 112.944209,91.2614355 114.726617,90.7908516 C116.509026,90.3202676 118,89.2710701 118,87.4104399 C118,85.5498096 118,82.7833207 118,80.9408535 C118,79.0983863 116.517067,77.7438234 114.726617,77.7438234 C112.936168,77.7438234 108.780133,77.7438234 105.196177,77.7438234 C101.61222,77.7438234 98.636175,75.0045022 98.636175,71.3084063 C98.636175,67.6123103 98.636175,69.2194457 98.636175,63.8321307 C98.636175,58.4448157 96.6457654,53.5938476 93.1018877,49.9335187 C90.7393026,47.4932994 89.2031515,45.9806018 88.4934342,45.3954258 C89.1460403,45.0037867 90.6821915,43.5122645 93.1018877,40.9208592 C96.7314321,37.0337512 98.636175,32.2078917 98.636175,27.0161866 C98.636175,21.8244815 98.636175,23.1833836 98.636175,19.4657124 C98.636175,15.7480412 101.663539,12.9448979 105.196177,12.9448979 C108.728814,12.9448979 112.981507,12.9448979 114.726617,12.9448979 C116.471728,12.9448979 118,11.3735901 118,9.76061547 C118,8.14764084 118,5.06917347 118,3.26892627 C118,1.46867907 116.510862,0 114.726617,0 Z" id="Path" fill="#E77FC9" transform="translate(95.500000, 45.500000) scale(-1, 1) translate(-95.500000, -45.500000) "></path>
            </g>
        </g>
    </g>
</svg>
