<?xml version="1.0" encoding="UTF-8"?>
<svg width="581px" height="105px" viewBox="0 0 581 105" version="1.1" xmlns="http://www.w3.org/2000/svg" xmlns:xlink="http://www.w3.org/1999/xlink">
    <!-- Generator: Sketch 64 (93537) - https://sketch.com -->
    <title>Group</title>
    <desc>Created with Sketch.</desc>
    <g id="Page-1" stroke="none" stroke-width="1" fill="none" fill-rule="evenodd">
        <g id="Group">
            <path d="M521,57.4132325 C521,57.4132325 521,56.7362253 521,60.8547119 C521,67.4141072 523.463636,73.2911891 527.606593,78 C527.606593,78 564.474495,78 564.474495,78 C568.708432,73.5896025 571,67.7126917 571,60.8547119 C566.119526,60.8547119 559.147535,60.8547119 552.93983,57.4132325 C544.177008,52.5552257 531.353932,53.1799946 521,57.4132325 Z" id="Path-2" fill="#BF1D90" opacity="0.4"></path>
            <path d="M529.799704,18 L540.59719,18 L540.59719,36.781726 C527.84107,41.8814746 521.463011,49.936658 521.463011,60.9472761 C521.463011,67.1329025 523.8515,72.8564295 527.913324,77.3007782 C527.913324,77.3007782 563.909106,77.3007782 563.909106,77.3007782 C567.741319,73.1641956 570.074277,67.4359439 570.074277,61.6093105 C570.074277,45.2055714 555.424945,39.0235689 551.387541,36.781726 C551.387541,36.781726 551.387541,30.5211507 551.387541,18 L562.096654,18 C562.096654,26.3200983 562.096654,30.4801474 562.096654,30.4801474 C574.016911,34.4535666 581,48.4174615 581,61.6093105 C580.429055,70.2491495 577.576788,78.3302759 571.965822,84.5846899 C570.074277,86.9182942 567.035796,88 563.909106,88 C560.782415,88 530.818,88 527.913324,88 C525.008647,88 522.065776,87.0833427 520.136305,84.5846899 C514.117222,78.246825 511,70.0147587 511,60.9472761 C511,47.4714995 518.68849,35.9875947 529.799704,30.4801474 C529.799704,30.4801474 529.799704,26.3200983 529.799704,18 Z" id="Path" fill="#BF1D90"></path>
            <path d="M527.614671,0 C529.132584,0 563.624248,0 565.204785,0 C566.785322,0 568,1.21316043 568,2.96216988 C568,4.71117934 568,6.67419358 568,8.2447523 C568,9.81531102 566.76212,11 565.204785,11 C563.647451,11 529.155086,11 527.614671,11 C526.074256,11 525,9.75264482 525,8.2447523 C525,6.73685978 525,4.7649823 525,2.96216988 C525,1.15935747 526.096758,0 527.614671,0 Z" id="Path-3" fill="#BF1D90"></path>
            <path d="M27.7452567,86.2207031 C45.7140067,86.2207031 55.1378348,77.3339844 55.1378348,64.6386719 C55.1378348,52.3828125 47.0323661,47.3535156 36.8761161,45.4003906 L27.2081473,43.4472656 C21.5440848,42.3730469 18.2726004,40.2246094 18.2726004,36.7089844 C18.2726004,32.5097656 21.7882254,29.3359375 28.2335379,29.3359375 C34.8741629,29.3359375 38.5851004,32.9492188 39.1222098,36.8554688 L53.9659598,36.8554688 C53.5753348,26.5527344 44.9327567,17.0800781 28.2823661,17.0800781 C12.8526786,17.0800781 2.30580357,25.0390625 2.30580357,37.9296875 C2.30580357,48.9648438 9.43470982,54.7265625 20.0304129,56.9238281 L29.4542411,58.9257812 C35.9972098,60.2929688 39.3175223,62.1484375 39.3175223,66.2988281 C39.3175223,70.5957031 35.8018973,73.8183594 28.3800223,73.8183594 C21.1046317,73.8183594 16.7589286,70.15625 16.2218192,65.859375 L0.938616071,65.859375 C1.32924107,76.3085938 8.89760045,86.2207031 27.7452567,86.2207031 Z M76.6208147,102.333984 L76.6208147,76.8457031 L77.4020647,76.8457031 C79.6481585,82.4121094 85.0192522,85.5859375 92.0993304,85.5859375 C104.159877,85.5859375 111.288783,76.7480469 111.288783,61.7089844 L111.288783,55.9960938 C111.288783,41.0546875 104.208705,32.265625 92.1969866,32.265625 C84.9704241,32.265625 79.3551897,35.5371094 77.2555804,41.1035156 L76.4743304,41.1035156 L76.4743304,32.8027344 L61.0446429,32.8027344 L61.0446429,102.333984 L76.6208147,102.333984 Z M86.0446429,73.3789062 C80.3317522,73.3789062 76.6208147,68.7890625 76.6208147,61.6601562 L76.6208147,56.5820312 C76.6208147,49.0625 80.1852679,44.5214844 85.9469866,44.5214844 C91.8551897,44.5214844 95.2243304,49.0625 95.2243304,57.0214844 L95.2243304,60.8789062 C95.2243304,68.7890625 91.8551897,73.3789062 86.0446429,73.3789062 Z M132.039342,85.78125 C139.705357,85.78125 143.904576,82.1679688 145.662388,78.6035156 L146.39481,78.6035156 L146.39481,85 L160.99442,85 L160.99442,50.3808594 C160.99442,36.8066406 151.033482,32.0703125 138.679967,32.0703125 C122.664342,32.0703125 117.097935,40.3222656 116.70731,48.7207031 L131.30692,48.7207031 C131.697545,45.7421875 133.992467,43.5449219 138.435826,43.5449219 C142.830357,43.5449219 145.662388,45.6933594 145.662388,49.84375 L145.662388,54.1894531 L133.504185,54.1894531 C121.39481,54.1894531 114.803013,60.390625 114.803013,69.8632812 C114.803013,79.8242188 121.834263,85.78125 132.039342,85.78125 Z M137.410435,74.7460938 C133.65067,74.7460938 130.135045,72.6953125 130.135045,68.6425781 C130.135045,65.1757812 132.722935,62.734375 137.605748,62.734375 L145.662388,62.734375 L145.662388,67.8125 C145.662388,71.9140625 141.804967,74.7460938 137.410435,74.7460938 Z M184.332868,85 L184.332868,56.1914062 C184.332868,49.2089844 188.043806,45.15625 193.463728,45.15625 C197.662946,45.15625 201.618025,47.4023438 201.618025,54.7265625 L201.618025,85 L217.194196,85 L217.194196,50.5761719 C217.194196,38.1738281 210.407087,32.0703125 199.957868,32.0703125 C190.192243,32.0703125 185.944196,37.8320312 184.625837,41.8359375 L183.893415,41.8359375 L183.893415,32.8515625 L168.756696,32.8515625 L168.756696,85 L184.332868,85 Z M247.222098,104.091797 C259.624442,104.091797 272.905692,99.5019531 272.905692,84.3164062 L272.905692,32.8515625 L257.476004,32.8515625 L257.476004,40.9570312 L256.743583,40.9570312 C254.98577,36.0253906 249.614676,32.265625 242.046317,32.265625 C230.620536,32.265625 222.856864,40.6152344 222.856864,56.1914062 L222.856864,60.0976562 C222.856864,75.6738281 230.669364,84.0234375 242.046317,84.0234375 C249.51702,84.0234375 254.692801,80.4589844 256.54827,75.8203125 L257.32952,75.8203125 L257.32952,83.046875 C257.32952,89.3945312 254.20452,92.9589844 247.612723,92.9589844 C242.876395,92.9589844 239.458426,91.2988281 238.726004,88.2226562 L223.931083,88.2226562 C224.224051,96.5234375 231.255301,104.091797 247.222098,104.091797 Z M248.296317,72.7441406 C242.778739,72.7441406 238.872489,68.3007812 238.872489,60.390625 L238.872489,56.875 C238.872489,48.9648438 242.583426,44.5214844 248.247489,44.5214844 C253.765067,44.5214844 257.32952,49.1113281 257.32952,56.3867188 L257.32952,60.9277344 C257.32952,68.1054688 253.862723,72.7441406 248.296317,72.7441406 Z M307.816406,86.2207031 C323.246094,86.2207031 334.525391,76.9921875 334.867187,63.2714844 L334.867187,61.2695312 L319.583984,61.2695312 C319.242187,67.9101562 314.994141,72.7441406 307.914062,72.7441406 C299.857422,72.7441406 295.21875,66.640625 295.21875,55.4589844 L295.21875,48.0859375 C295.21875,36.9042969 299.90625,30.6054688 307.914062,30.6054688 C314.896484,30.6054688 319.242187,35.6835938 319.583984,42.4707031 L334.867187,42.4707031 L334.867187,40.5175781 C334.525391,26.4550781 323.294922,17.1777344 307.816406,17.1777344 C289.261719,17.1777344 278.861328,29.0917969 278.861328,48.0859375 L278.861328,55.4101562 C278.861328,74.4042969 289.164062,86.2207031 307.816406,86.2207031 Z M356.789621,85 L356.789621,56.875 C356.789621,49.8925781 360.402902,45.3515625 368.410714,45.3515625 C370.705636,45.3515625 373.049386,45.546875 374.123605,45.9375 L374.123605,32.5585938 C373.147042,32.265625 371.633371,32.0703125 369.436105,32.0703125 C361.867746,32.0703125 358.010324,37.5390625 357.082589,41.1035156 L356.350167,41.1035156 L356.350167,32.8515625 L340.773996,32.8515625 L340.773996,85 L356.789621,85 Z M392.09096,85.78125 C399.756975,85.78125 403.956194,82.1679688 405.714007,78.6035156 L406.446429,78.6035156 L406.446429,85 L421.046038,85 L421.046038,50.3808594 C421.046038,36.8066406 411.0851,32.0703125 398.731585,32.0703125 C382.71596,32.0703125 377.149554,40.3222656 376.758929,48.7207031 L391.358538,48.7207031 C391.749163,45.7421875 394.044085,43.5449219 398.487444,43.5449219 C402.881975,43.5449219 405.714007,45.6933594 405.714007,49.84375 L405.714007,54.1894531 L393.555804,54.1894531 C381.446429,54.1894531 374.854632,60.390625 374.854632,69.8632812 C374.854632,79.8242188 381.885882,85.78125 392.09096,85.78125 Z M397.462054,74.7460938 C393.702288,74.7460938 390.186663,72.6953125 390.186663,68.6425781 C390.186663,65.1757812 392.774554,62.734375 397.657366,62.734375 L405.714007,62.734375 L405.714007,67.8125 C405.714007,71.9140625 401.856585,74.7460938 397.462054,74.7460938 Z M448.97433,85 L448.97433,45.4492188 L460.058315,45.4492188 L460.058315,33.6328125 L448.583705,33.6328125 L448.583705,29.8242188 C448.583705,25.9667969 450.780971,24.5507812 455.663783,24.5507812 C457.275112,24.5507812 459.66769,24.6484375 460.595424,24.7949219 L460.595424,14.1015625 C458.739955,13.8574219 455.22433,13.6132812 452.392299,13.6132812 C438.769252,13.6132812 433.544643,17.9101562 433.544643,28.5058594 L433.544643,33.6328125 L425.146205,33.6328125 L425.146205,45.4492188 L433.544643,45.4492188 L433.544643,85 L448.97433,85 Z M488.377232,85.1464844 C492.039342,85.1464844 495.652623,84.8046875 496.824498,84.5605469 L496.824498,73.2324219 C495.847935,73.3300781 494.041295,73.4277344 492.136998,73.4277344 C487.351842,73.4277344 485.105748,71.8652344 485.105748,67.3242188 L485.105748,45.4492188 L496.531529,45.4492188 L496.531529,33.6328125 L485.105748,33.6328125 L485.105748,20.7421875 L470.066685,20.7421875 L470.066685,33.6328125 L461.765904,33.6328125 L461.765904,45.4492188 L469.724888,45.4492188 L469.724888,70.15625 C469.724888,81.0449219 475.047154,85.1464844 488.377232,85.1464844 Z" id="SpangCraft" fill="#FFFFFF" fill-rule="nonzero"></path>
        </g>
    </g>
</svg>