<?xml version="1.0" standalone="no"?>
<!DOCTYPE svg PUBLIC "-//W3C//DTD SVG 20010904//EN"
 "http://www.w3.org/TR/2001/REC-SVG-20010904/DTD/svg10.dtd">
<svg version="1.0" xmlns="http://www.w3.org/2000/svg"
 width="530.000000pt" height="530.000000pt" viewBox="0 0 530.000000 530.000000"
 preserveAspectRatio="xMidYMid meet">
<metadata>
Created by potrace 1.14, written by Peter Selinger 2001-2017
</metadata>
<g transform="translate(0.000000,530.000000) scale(0.100000,-0.100000)"
fill="#000000" stroke="none">
<path d="M3610 4815 c-25 -7 -121 -36 -215 -65 -159 -48 -405 -117 -450 -126
-11 -2 -33 -7 -49 -9 -176 -33 -336 -175 -434 -385 -141 -303 -108 -649 76
-809 54 -47 88 -60 187 -67 162 -13 351 96 476 274 56 79 112 204 131 287 1 6
7 34 14 62 17 72 11 235 -10 305 l-17 58 113 155 c62 86 120 166 128 178 8 12
33 47 56 77 67 90 67 86 -6 65z"/>
<path d="M2120 4569 c-47 -17 -92 -32 -100 -34 -73 -18 -438 -144 -485 -167
-106 -52 -194 -126 -275 -233 -62 -81 -74 -107 -99 -215 -62 -257 38 -517 233
-606 67 -30 87 -35 151 -34 51 0 58 1 110 15 88 23 202 113 260 205 24 38 88
180 85 188 -1 1 4 34 10 73 23 138 -8 286 -82 390 -9 13 -4 26 23 65 18 27 37
54 42 59 4 6 47 64 95 130 48 66 97 133 110 149 22 29 28 46 15 45 -5 0 -46
-14 -93 -30z"/>
<path d="M4460 4163 c-19 -27 -39 -53 -45 -60 -5 -6 -22 -29 -37 -50 -15 -21
-55 -77 -90 -125 -35 -48 -81 -112 -102 -142 -37 -52 -41 -54 -85 -54 -78 -1
-139 -13 -204 -39 -107 -43 -130 -55 -204 -109 -276 -203 -396 -517 -286 -750
33 -70 73 -108 153 -147 61 -29 72 -31 180 -32 138 0 166 4 262 41 132 50 233
116 333 219 72 74 93 99 107 131 6 13 15 24 20 24 4 0 8 4 8 9 0 5 10 30 22
57 12 27 23 52 24 57 1 4 2 8 4 10 16 20 18 150 6 402 -9 190 -14 350 -15 498
-1 59 -5 107 -9 107 -5 0 -24 -21 -42 -47z"/>
<path d="M2045 3035 c-11 -4 -107 -14 -167 -18 -21 -1 -38 -5 -38 -9 0 -4 -7
-5 -15 -2 -8 4 -23 0 -32 -7 -14 -12 -16 -12 -8 1 6 12 5 12 -5 3 -7 -6 -19
-9 -26 -6 -10 4 -13 0 -8 -13 5 -18 5 -18 -6 -1 -6 9 -16 15 -21 12 -5 -4 -7
-11 -3 -16 3 -6 -4 -5 -15 3 -14 8 -24 9 -29 3 -4 -6 -18 -11 -32 -13 -40 -5
-101 -18 -130 -29 -8 -3 -24 -8 -35 -10 -11 -2 -21 -8 -23 -13 -2 -5 -10 -6
-18 -3 -8 3 -14 -1 -14 -8 0 -11 -3 -11 -11 1 -8 12 -10 10 -5 -10 5 -23 4
-23 -9 -7 -8 12 -15 14 -20 7 -3 -5 -11 -8 -16 -5 -5 4 -9 2 -9 -4 0 -6 -7 -8
-15 -5 -8 4 -15 1 -15 -7 0 -7 -3 -10 -6 -6 -8 8 -65 -13 -59 -23 3 -4 -5 -6
-17 -2 -18 4 -20 2 -14 -14 5 -15 4 -16 -5 -7 -13 13 -56 -1 -76 -26 -11 -13
-13 -13 -13 0 0 9 -3 10 -8 3 -4 -5 -27 -20 -52 -32 -56 -27 -83 -44 -92 -57
-4 -5 -8 -6 -8 -1 0 5 -8 -1 -19 -12 -10 -12 -21 -18 -25 -14 -4 4 -12 -1 -17
-11 -6 -9 -15 -17 -20 -17 -6 0 -17 -6 -24 -12 -8 -7 -21 -19 -30 -26 -8 -7
-12 -18 -9 -24 4 -7 2 -8 -4 -4 -13 8 -53 -24 -46 -36 3 -5 2 -7 -3 -6 -5 2
-20 -8 -33 -22 -38 -38 -76 -84 -64 -77 6 3 11 0 11 -7 0 -8 -6 -12 -12 -10
-11 5 -40 -43 -37 -58 1 -5 -3 -8 -10 -8 -6 0 -8 -3 -5 -7 4 -3 2 -12 -4 -19
-6 -8 -9 -21 -5 -29 3 -8 0 -15 -6 -15 -6 0 -5 -6 3 -17 10 -11 10 -14 2 -9
-9 5 -13 1 -14 -11 -5 -77 7 -166 21 -171 6 -2 8 -8 5 -13 -6 -9 30 -78 75
-145 38 -55 141 -146 158 -139 7 2 10 0 7 -5 -7 -11 18 -40 34 -40 6 0 11 -4
11 -10 0 -5 7 -10 15 -10 8 0 15 -4 15 -8 0 -9 37 -29 54 -30 5 0 12 -4 15 -9
13 -18 93 -54 107 -49 9 3 12 1 9 -4 -3 -6 2 -13 12 -16 10 -3 31 -12 48 -19
16 -8 33 -11 37 -9 4 3 8 1 8 -4 0 -5 6 -9 13 -9 20 -1 42 -8 48 -15 3 -5 17
-9 32 -10 15 -1 27 -5 27 -9 0 -3 6 -6 13 -7 22 -2 42 -7 55 -15 7 -5 12 -3
12 5 0 9 2 10 8 1 4 -6 27 -19 52 -28 144 -54 207 -81 215 -95 3 -6 11 -8 16
-5 5 4 9 1 9 -6 0 -7 3 -10 6 -6 4 3 12 1 19 -6 7 -7 28 -23 46 -37 18 -14 51
-42 72 -62 22 -21 44 -35 50 -31 6 4 8 0 4 -9 -6 -18 35 -62 48 -51 4 5 5 2 1
-4 -4 -8 -2 -13 5 -13 7 0 10 -3 6 -6 -3 -4 -1 -12 6 -19 7 -7 19 -23 27 -35
8 -12 23 -31 33 -42 9 -12 17 -24 17 -27 0 -3 7 -15 15 -25 13 -17 17 -17 32
-5 16 13 17 12 5 -3 -11 -13 -11 -20 0 -37 7 -12 16 -21 20 -21 5 0 8 -7 8
-15 0 -8 3 -15 8 -15 4 0 21 -21 37 -45 17 -25 35 -45 41 -45 7 0 14 -10 17
-21 4 -14 11 -20 21 -16 10 4 13 1 10 -7 -3 -8 5 -21 18 -30 12 -9 19 -16 15
-16 -4 0 -2 -6 5 -14 7 -8 16 -12 21 -9 4 2 7 -4 7 -14 0 -15 2 -16 10 -3 9
13 10 13 10 0 0 -9 10 -24 23 -35 39 -35 97 -75 107 -75 5 0 10 -4 10 -10 0
-5 6 -10 14 -10 8 0 16 -3 18 -7 2 -5 17 -16 34 -25 24 -14 33 -15 43 -5 10 9
11 9 6 -4 -5 -12 7 -20 52 -34 32 -10 64 -20 72 -23 8 -3 12 -1 8 5 -3 5 0 10
8 10 8 0 13 -5 12 -10 -3 -14 65 -16 82 -3 11 8 13 8 7 -2 -4 -7 -1 -12 9 -12
9 0 14 3 12 8 -3 4 15 8 38 8 24 1 52 5 62 9 10 5 20 9 23 10 3 2 15 6 28 10
12 4 22 14 22 22 0 8 4 12 10 8 10 -6 50 24 50 38 0 4 -4 6 -9 2 -5 -3 -13 0
-17 7 -4 7 -3 10 1 5 5 -4 18 1 29 10 20 17 20 17 7 0 -20 -25 2 -21 27 6 24
25 29 43 10 31 -7 -4 -8 -3 -4 5 4 6 12 9 17 6 9 -6 56 64 51 78 -1 4 3 7 9 7
6 0 8 7 5 16 -3 8 -2 13 3 10 11 -7 53 103 44 116 -4 7 -1 8 7 3 10 -6 12 -4
7 8 -3 8 1 21 8 27 8 7 13 15 11 19 -3 4 -1 13 4 21 5 9 4 20 -3 29 -9 11 -9
13 0 8 17 -10 34 73 19 92 -8 11 -8 13 2 7 6 -4 12 -3 12 3 0 5 3 17 7 27 4
10 2 15 -4 11 -5 -3 -10 0 -10 8 0 8 4 12 9 9 4 -3 8 1 8 10 0 8 3 22 7 32 5
13 3 15 -8 9 -12 -8 -12 -6 0 8 7 9 11 23 8 31 -3 8 -3 17 1 21 11 11 9 55 -2
55 -6 0 -5 4 3 9 11 7 12 42 7 182 -8 238 -10 263 -21 271 -6 5 -4 8 4 8 11 0
10 5 -4 20 -14 15 -16 23 -7 32 8 8 6 15 -7 27 -9 9 -11 12 -4 7 10 -6 12 -2
11 18 -1 14 -5 26 -8 26 -3 0 -6 10 -6 23 -1 12 -5 40 -9 62 -3 22 -8 49 -10
60 -2 11 -11 45 -20 75 -9 30 -16 63 -16 73 0 10 -5 15 -11 11 -7 -5 -9 -1 -5
9 4 10 0 20 -11 26 -9 6 -12 11 -5 11 14 0 -5 70 -19 70 -5 0 -7 4 -3 9 3 5 1
12 -4 16 -6 3 -8 12 -4 20 3 8 0 15 -6 15 -6 0 -11 7 -11 15 0 19 -41 109 -52
113 -4 2 -8 10 -8 17 0 8 -6 20 -13 27 -7 7 -15 18 -18 23 -2 6 -8 9 -12 7 -5
-1 -6 2 -3 7 8 12 -4 41 -16 41 -7 0 -6 -5 1 -13 8 -10 7 -14 -3 -14 -15 0
-16 14 -3 35 5 6 4 12 -1 12 -5 0 -15 11 -22 25 -7 14 -19 25 -27 25 -7 0 -12
4 -10 8 4 15 -45 72 -61 72 -9 0 -12 3 -9 6 9 10 -45 54 -56 47 -6 -3 -7 -1
-3 5 8 13 -47 45 -59 34 -5 -4 -5 -2 -1 5 3 6 2 14 -4 18 -5 3 -10 1 -10 -6 0
-7 -9 -2 -19 10 -11 13 -26 24 -33 25 -7 1 -31 10 -53 20 -22 10 -48 18 -57
19 -10 1 -18 5 -18 9 0 4 -5 8 -11 8 -5 0 -7 -5 -3 -11 3 -6 -5 -3 -20 6 -22
14 -29 15 -42 4 -12 -10 -15 -10 -12 2 3 14 -5 16 -82 22 -19 1 -38 6 -42 12
-10 12 -29 -15 -21 -29 3 -5 1 -6 -5 -2 -6 4 -8 14 -5 23 5 13 0 15 -30 11
-19 -2 -33 0 -30 5 7 12 -30 4 -39 -8 -5 -6 -8 -6 -8 2 0 6 -15 11 -35 11 -32
0 -34 -2 -23 -16 12 -16 11 -16 -7 -1 -29 23 -122 23 -128 1 -4 -15 -5 -15 -6
1 -1 16 -21 21 -46 12z m240 -24 c3 -5 2 -12 -3 -15 -5 -3 -9 1 -9 9 0 17 3
19 12 6z m-277 -21 c-7 -10 -14 -17 -17 -15 -4 4 18 35 25 35 2 0 -1 -9 -8
-20z m327 11 c-9 -8 -36 -10 -30 -2 2 4 11 8 20 8 8 0 13 -3 10 -6z m-226 -14
c8 -10 7 -14 -2 -14 -8 0 -14 6 -14 14 0 7 1 13 2 13 2 0 8 -6 14 -13z m-219
-7 c0 -5 -2 -10 -4 -10 -3 0 -8 5 -11 10 -3 6 -1 10 4 10 6 0 11 -4 11 -10z
m300 4 c0 -8 -19 -13 -24 -6 -3 5 1 9 9 9 8 0 15 -2 15 -3z m55 -22 c-3 -3 0
-11 6 -19 17 -20 5 -16 -14 5 -15 16 -15 19 -2 19 8 0 13 -3 10 -5z m-235 -20
c0 -5 -7 -9 -15 -9 -8 0 -12 4 -9 9 3 4 9 8 15 8 5 0 9 -4 9 -8z m34 0 c3 -5
-1 -9 -9 -9 -8 0 -12 4 -9 9 3 4 7 8 9 8 2 0 6 -4 9 -8z m161 -1 c3 -5 2 -12
-3 -15 -5 -3 -9 1 -9 9 0 17 3 19 12 6z m125 1 c0 -5 -7 -9 -15 -9 -8 0 -12 4
-9 9 3 4 9 8 15 8 5 0 9 -4 9 -8z m34 0 c3 -5 -1 -9 -9 -9 -8 0 -12 4 -9 9 3
4 7 8 9 8 2 0 6 -4 9 -8z m161 -1 c3 -5 2 -12 -3 -15 -5 -3 -9 1 -9 9 0 17 3
19 12 6z m-921 -27 c3 -8 2 -12 -4 -9 -6 3 -10 10 -10 16 0 14 7 11 14 -7z
m126 4 c0 -4 -4 -8 -9 -8 -6 0 -12 4 -15 8 -3 5 1 9 9 9 8 0 15 -4 15 -9z
m391 -12 c-15 -15 -24 -17 -32 -9 -8 8 -6 11 7 10 11 -1 18 3 17 9 -1 6 5 11
13 11 12 0 10 -5 -5 -21z m46 17 c-4 -3 -1 -13 6 -22 11 -14 10 -14 -5 -2 -16
12 -16 31 -1 31 4 0 3 -3 0 -7z m274 -17 c-15 -15 -24 -17 -32 -9 -8 8 -6 11
7 10 11 -1 18 3 17 9 -1 6 5 11 13 11 12 0 10 -5 -5 -21z m46 17 c-4 -3 -1
-13 6 -22 11 -14 10 -14 -5 -2 -16 12 -16 31 -1 31 4 0 3 -3 0 -7z m78 -3 c3
-5 1 -10 -4 -10 -6 0 -11 5 -11 10 0 6 2 10 4 10 3 0 8 -4 11 -10z m45 -2 c0
-4 -4 -8 -9 -8 -6 0 -12 4 -15 8 -3 5 1 9 9 9 8 0 15 -4 15 -9z m-663 -13 c0
-8 -4 -15 -9 -15 -10 0 -11 14 -1 23 9 10 10 9 10 -8z m320 0 c0 -8 -4 -15 -9
-15 -10 0 -11 14 -1 23 9 10 10 9 10 -8z m-737 -10 c-5 -7 -9 -14 -7 -16 1 -2
0 -3 -2 -1 -11 7 -7 29 5 29 9 0 11 -4 4 -12z m37 0 c0 -8 -4 -12 -9 -9 -5 3
-6 10 -3 15 9 13 12 11 12 -6z m117 -1 c3 -8 2 -12 -4 -9 -6 3 -10 10 -10 16
0 14 7 11 14 -7z m352 4 c3 -4 -1 -5 -10 -4 -8 1 -18 5 -22 8 -3 4 1 5 10 4 8
-1 18 -5 22 -8z m174 8 c0 -3 -4 -8 -10 -11 -5 -3 -10 -1 -10 4 0 6 5 11 10
11 6 0 10 -2 10 -4z m146 -8 c3 -4 -1 -5 -10 -4 -8 1 -18 5 -22 8 -3 4 1 5 10
4 8 -1 18 -5 22 -8z m174 8 c0 -3 -4 -8 -10 -11 -5 -3 -10 -1 -10 4 0 6 5 11
10 11 6 0 10 -2 10 -4z m-1080 -10 c0 -2 -8 -10 -17 -17 -16 -13 -17 -12 -4 4
13 16 21 21 21 13z m1120 0 c0 -2 -8 -10 -17 -17 -16 -13 -17 -12 -4 4 13 16
21 21 21 13z m-966 -14 c3 -5 -1 -9 -9 -9 -8 0 -12 4 -9 9 3 4 7 8 9 8 2 0 6
-4 9 -8z m1002 -16 c0 -14 -3 -23 -7 -20 -6 3 -6 22 0 42 3 10 7 -2 7 -22z
m-678 -11 c-3 -3 -9 2 -12 12 -6 14 -5 15 5 6 7 -7 10 -15 7 -18z m-438 9 c0
-8 -19 -13 -24 -6 -3 5 1 9 9 9 8 0 15 -2 15 -3z m474 -2 c3 -5 -1 -9 -9 -9
-8 0 -12 4 -9 9 3 4 7 8 9 8 2 0 6 -4 9 -8z m160 0 c3 -5 -1 -9 -9 -9 -8 0
-12 4 -9 9 3 4 7 8 9 8 2 0 6 -4 9 -8z m160 0 c3 -5 -1 -9 -9 -9 -8 0 -12 4
-9 9 3 4 7 8 9 8 2 0 6 -4 9 -8z m160 0 c3 -5 -1 -9 -9 -9 -8 0 -12 4 -9 9 3
4 7 8 9 8 2 0 6 -4 9 -8z m330 0 c3 -5 -1 -9 -9 -9 -8 0 -12 4 -9 9 3 4 7 8 9
8 2 0 6 -4 9 -8z m36 4 c0 -3 -4 -8 -10 -11 -5 -3 -10 -1 -10 4 0 6 5 11 10
11 6 0 10 -2 10 -4z m55 -6 c3 -5 1 -10 -4 -10 -6 0 -11 5 -11 10 0 6 2 10 4
10 3 0 8 -4 11 -10z m-1498 -25 c0 -8 -4 -12 -9 -9 -5 3 -6 10 -3 15 9 13 12
11 12 -6z m43 0 c-5 -7 -7 -15 -3 -18 3 -4 1 -7 -5 -7 -6 0 -10 8 -9 18 0 10
7 19 14 19 9 0 10 -4 3 -12z m636 -10 c1 -8 -2 -15 -6 -15 -5 0 -8 9 -7 20 1
21 10 18 13 -5z m56 0 c2 3 5 -2 5 -10 0 -10 -4 -12 -12 -5 -7 5 -16 6 -21 2
-5 -4 -6 -3 -2 2 4 5 2 16 -4 25 -10 12 -7 12 8 -2 11 -9 23 -15 26 -12z m65
10 c0 -8 -4 -12 -9 -9 -5 3 -6 10 -3 15 9 13 12 11 12 -6z m43 0 c-5 -7 -7
-15 -3 -18 3 -4 1 -7 -5 -7 -6 0 -10 8 -9 18 0 10 7 19 14 19 9 0 10 -4 3 -12z
m212 -10 c2 3 5 -2 5 -10 0 -10 -4 -12 -12 -5 -7 5 -16 6 -21 2 -5 -4 -6 -3
-2 2 4 5 2 16 -4 25 -10 12 -7 12 8 -2 11 -9 23 -15 26 -12z m65 10 c0 -8 -4
-12 -9 -9 -5 3 -6 10 -3 15 9 13 12 11 12 -6z m43 0 c-5 -7 -7 -15 -3 -18 3
-4 1 -7 -5 -7 -6 0 -10 8 -9 18 0 10 7 19 14 19 9 0 10 -4 3 -12z m114 7 c3
-5 -1 -9 -9 -9 -8 0 -12 4 -9 9 3 4 7 8 9 8 2 0 6 -4 9 -8z m46 -4 c0 -4 -4
-8 -9 -8 -6 0 -12 4 -15 8 -3 5 1 9 9 9 8 0 15 -4 15 -9z m-1123 -13 c0 -8 -4
-15 -9 -15 -10 0 -11 14 -1 23 9 10 10 9 10 -8z m695 0 c2 3 5 -2 5 -10 0 -10
-4 -12 -12 -5 -7 5 -14 8 -17 5 -2 -3 -5 2 -5 10 0 10 4 12 12 5 7 -5 14 -8
17 -5z m105 0 c0 -8 -4 -15 -9 -15 -10 0 -11 14 -1 23 9 10 10 9 10 -8z
m-1073 -3 c3 -5 -1 -9 -9 -9 -8 0 -12 4 -9 9 3 4 7 8 9 8 2 0 6 -4 9 -8z m173
-7 c0 -8 -4 -12 -9 -9 -4 3 -8 9 -8 15 0 5 4 9 8 9 5 0 9 -7 9 -15z m480 -2
c0 -9 -4 -10 -14 -2 -7 6 -13 12 -13 14 0 1 6 2 13 2 8 0 14 -6 14 -14z m648
8 c-3 -2 -16 -6 -28 -8 -15 -2 -18 0 -9 5 14 9 45 12 37 3z m131 -17 c1 -9 0
-13 -4 -10 -3 4 -7 14 -8 22 -1 9 0 13 4 10 3 -4 7 -14 8 -22z m-80 1 c-1 -8
-5 -17 -8 -21 -5 -4 -4 16 1 34 3 9 9 -1 7 -13z m-1481 -12 c-1 -10 3 -25 9
-33 9 -13 9 -13 -6 -2 -13 10 -16 26 -9 50 4 11 9 -2 6 -15z m439 1 c3 -8 2
-12 -4 -9 -6 3 -10 10 -10 16 0 14 7 11 14 -7z m1330 8 c2 -4 -4 -8 -14 -8
-10 0 -16 4 -14 8 3 4 9 8 14 8 5 0 11 -4 14 -8z m-1627 -15 c0 -8 -6 -14 -14
-14 -9 0 -10 4 -2 14 6 7 12 13 14 13 1 0 2 -6 2 -13z m100 -2 c0 -8 -4 -12
-9 -9 -5 3 -6 10 -3 15 9 13 12 11 12 -6z m158 6 c3 -5 2 -12 -3 -15 -5 -3 -9
1 -9 9 0 17 3 19 12 6z m482 -6 c0 -8 -4 -12 -9 -9 -5 3 -6 10 -3 15 9 13 12
11 12 -6z m160 0 c0 -8 -4 -12 -9 -9 -5 3 -6 10 -3 15 9 13 12 11 12 -6z m160
0 c0 -8 -4 -12 -9 -9 -5 3 -6 10 -3 15 9 13 12 11 12 -6z m160 0 c0 -8 -4 -12
-9 -9 -5 3 -6 10 -3 15 9 13 12 11 12 -6z m-1283 -4 c3 -5 -2 -15 -12 -22 -15
-12 -16 -12 -5 2 7 9 10 19 6 22 -3 4 -4 7 0 7 3 0 8 -4 11 -9z m696 4 c0 -2
-6 -8 -13 -14 -10 -8 -14 -7 -14 2 0 8 6 14 14 14 7 0 13 -1 13 -2z m164 -3
c3 -5 -1 -9 -9 -9 -8 0 -12 4 -9 9 3 4 7 8 9 8 2 0 6 -4 9 -8z m320 0 c3 -5
-1 -9 -9 -9 -8 0 -12 4 -9 9 3 4 7 8 9 8 2 0 6 -4 9 -8z m163 -7 c0 -8 -4 -12
-9 -9 -4 3 -8 9 -8 15 0 5 4 9 8 9 5 0 9 -7 9 -15z m117 6 c-7 -8 -54 -9 -49
-1 2 3 15 6 29 6 14 0 23 -2 20 -5z m143 -6 c0 -8 -4 -12 -9 -9 -5 3 -6 10 -3
15 9 13 12 11 12 -6z m-1478 -8 c8 -10 7 -14 -2 -14 -8 0 -14 6 -14 14 0 7 1
13 2 13 2 0 8 -6 14 -13z m800 0 c8 -10 7 -14 -2 -14 -8 0 -14 6 -14 14 0 7 1
13 2 13 2 0 8 -6 14 -13z m320 0 c8 -10 7 -14 -2 -14 -8 0 -14 6 -14 14 0 7 1
13 2 13 2 0 8 -6 14 -13z m321 -9 c0 -4 -4 -8 -9 -8 -6 0 -12 4 -15 8 -3 5 1
9 9 9 8 0 15 -4 15 -9z m80 -3 c-5 -7 -9 -14 -7 -16 1 -2 0 -3 -2 -2 -2 2 -11
-3 -20 -9 -12 -10 -12 -7 2 8 9 11 15 23 12 26 -3 2 2 5 10 5 10 0 12 -4 5
-12z m-1808 -7 c-14 -14 -44 -20 -36 -7 3 5 9 7 14 4 5 -3 11 -1 15 5 3 5 9
10 13 10 3 0 1 -5 -6 -12z m1625 -1 c0 -8 -6 -14 -14 -14 -9 0 -10 4 -2 14 6
7 12 13 14 13 1 0 2 -6 2 -13z m288 -7 c10 -11 16 -20 13 -20 -3 0 -13 9 -23
20 -10 11 -16 20 -13 20 3 0 13 -9 23 -20z m-1725 4 c0 -8 -19 -13 -24 -6 -3
5 1 9 9 9 8 0 15 -2 15 -3z m164 -2 c3 -5 -1 -9 -9 -9 -8 0 -12 4 -9 9 3 4 7
8 9 8 2 0 6 -4 9 -8z m441 -1 c-9 -8 -36 -10 -30 -2 2 4 11 8 20 8 8 0 13 -3
10 -6z m709 1 c3 -5 -1 -9 -9 -9 -8 0 -12 4 -9 9 3 4 7 8 9 8 2 0 6 -4 9 -8z
m382 -18 c1 -9 0 -13 -4 -10 -3 4 -7 14 -8 22 -1 9 0 13 4 10 3 -4 7 -14 8
-22z m-1186 1 c0 -2 -6 -8 -13 -14 -10 -8 -14 -7 -14 2 0 8 6 14 14 14 7 0 13
-1 13 -2z m146 -21 c1 -9 0 -13 -4 -10 -3 4 -7 14 -8 22 -1 9 0 13 4 10 3 -4
7 -14 8 -22z m285 13 c-6 -8 -7 -18 -3 -22 4 -5 1 -5 -6 -1 -10 6 -10 11 -1
22 6 8 14 14 16 14 3 0 0 -6 -6 -13z m199 7 c0 -8 -19 -13 -24 -6 -3 5 1 9 9
9 8 0 15 -2 15 -3z m196 -19 c-1 -13 -4 -27 -7 -30 -5 -4 -4 41 0 53 4 10 8
-2 7 -23z m-240 -9 c0 -14 -3 -23 -7 -20 -6 3 -6 22 0 42 3 10 7 -2 7 -22z
m160 0 c0 -14 -3 -23 -7 -20 -6 3 -6 22 0 42 3 10 7 -2 7 -22z m-1359 -1 c0
-8 -4 -12 -9 -9 -5 3 -6 10 -3 15 9 13 12 11 12 -6z m158 6 c3 -5 2 -12 -3
-15 -5 -3 -9 1 -9 9 0 17 3 19 12 6z m322 -6 c0 -8 -4 -12 -9 -9 -5 3 -6 10
-3 15 9 13 12 11 12 -6z m63 9 c0 -8 -19 -13 -24 -6 -3 5 1 9 9 9 8 0 15 -2
15 -3z m97 -9 c0 -8 -4 -12 -9 -9 -5 3 -6 10 -3 15 9 13 12 11 12 -6z m60 -2
c0 -9 -4 -10 -14 -2 -7 6 -13 12 -13 14 0 1 6 2 13 2 8 0 14 -6 14 -14z m443
8 c0 -6 -4 -12 -8 -15 -5 -3 -9 1 -9 9 0 8 4 15 9 15 4 0 8 -4 8 -9z m160 0
c0 -6 -4 -12 -8 -15 -5 -3 -9 1 -9 9 0 8 4 15 9 15 4 0 8 -4 8 -9z m304 1 c3
-5 -1 -9 -9 -9 -8 0 -12 4 -9 9 3 4 7 8 9 8 2 0 6 -4 9 -8z m31 -2 c3 -5 1
-10 -4 -10 -6 0 -11 5 -11 10 0 6 2 10 4 10 3 0 8 -4 11 -10z m85 -1 c0 -4 -9
-7 -19 -6 -11 0 -18 4 -16 7 6 9 35 8 35 -1z m40 5 c0 -8 -19 -13 -24 -6 -3 5
1 9 9 9 8 0 15 -2 15 -3z m-286 -22 c3 -5 -1 -9 -9 -9 -8 0 -12 4 -9 9 3 4 7
8 9 8 2 0 6 -4 9 -8z m46 -4 c0 -4 -4 -8 -9 -8 -6 0 -12 4 -15 8 -3 5 1 9 9 9
8 0 15 -4 15 -9z m36 -24 c0 -13 -2 -22 -5 -19 -3 3 -6 17 -7 31 0 13 2 22 5
19 3 -3 6 -17 7 -31z m-1616 5 c0 -5 -4 -9 -8 -9 -5 0 -9 7 -9 15 0 8 4 12 9
9 4 -3 8 -9 8 -15z m160 0 c0 -5 -4 -9 -8 -9 -5 0 -9 7 -9 15 0 8 4 12 9 9 4
-3 8 -9 8 -15z m160 0 c0 -5 -4 -9 -8 -9 -5 0 -9 7 -9 15 0 8 4 12 9 9 4 -3 8
-9 8 -15z m160 0 c0 -5 -4 -9 -8 -9 -5 0 -9 7 -9 15 0 8 4 12 9 9 4 -3 8 -9 8
-15z m116 6 c-1 -8 -5 -17 -8 -21 -5 -4 -4 16 1 34 3 9 9 -1 7 -13z m44 -6 c0
-5 -4 -9 -8 -9 -5 0 -9 7 -9 15 0 8 4 12 9 9 4 -3 8 -9 8 -15z m-784 -5 c-1
-8 -6 -17 -12 -21 -5 -4 -6 -4 -2 1 4 5 3 14 -2 21 -7 8 -5 12 4 12 8 0 13 -6
12 -13z m204 6 c0 -5 -2 -10 -4 -10 -3 0 -8 5 -11 10 -3 6 -1 10 4 10 6 0 11
-4 11 -10z m160 1 c0 -6 -4 -12 -8 -15 -5 -3 -9 1 -9 9 0 8 4 15 9 15 4 0 8
-4 8 -9z m160 0 c0 -6 -4 -12 -8 -15 -5 -3 -9 1 -9 9 0 8 4 15 9 15 4 0 8 -4
8 -9z m160 -1 c0 -5 -2 -10 -4 -10 -3 0 -8 5 -11 10 -3 6 -1 10 4 10 6 0 11
-4 11 -10z m160 0 c0 -5 -2 -10 -4 -10 -3 0 -8 5 -11 10 -3 6 -1 10 4 10 6 0
11 -4 11 -10z m55 1 c3 -5 2 -12 -3 -15 -5 -3 -9 1 -9 9 0 17 3 19 12 6z m325
3 c0 -8 -19 -13 -24 -6 -3 5 1 9 9 9 8 0 15 -2 15 -3z m114 -10 c3 -8 2 -12
-4 -9 -6 3 -10 10 -10 16 0 14 7 11 14 -7z m46 10 c0 -8 -19 -13 -24 -6 -3 5
1 9 9 9 8 0 15 -2 15 -3z m117 -9 c0 -8 -4 -12 -9 -9 -5 3 -6 10 -3 15 9 13
12 11 12 -6z m43 9 c0 -8 -19 -13 -24 -6 -3 5 1 9 9 9 8 0 15 -2 15 -3z m74
-2 c3 -5 -1 -9 -9 -9 -8 0 -12 4 -9 9 3 4 7 8 9 8 2 0 6 -4 9 -8z m296 2 c0
-8 -19 -13 -24 -6 -3 5 1 9 9 9 8 0 15 -2 15 -3z m27 -9 c0 -8 -4 -12 -9 -9
-4 3 -8 9 -8 15 0 5 4 9 8 9 5 0 9 -7 9 -15z m98 5 c3 -5 1 -10 -4 -10 -6 0
-11 5 -11 10 0 6 2 10 4 10 3 0 8 -4 11 -10z m-240 -9 c3 -5 2 -12 -3 -15 -5
-3 -9 1 -9 9 0 17 3 19 12 6z m-1755 -9 c0 -5 -7 -9 -15 -9 -8 0 -12 4 -9 9 3
4 9 8 15 8 5 0 9 -4 9 -8z m1805 -1 c-9 -8 -36 -10 -30 -2 2 4 11 8 20 8 8 0
13 -3 10 -6z m239 -3 c-3 -4 -9 -8 -15 -8 -5 0 -9 4 -9 8 0 5 7 9 15 9 8 0 12
-4 9 -9z m-904 -2 c0 -2 -6 -9 -14 -15 -11 -9 -16 -9 -22 0 -4 7 -3 9 4 5 6
-3 13 -2 17 4 6 10 15 14 15 6z m855 -5 c3 -5 2 -12 -3 -15 -5 -3 -9 1 -9 9 0
17 3 19 12 6z m-2115 -7 c0 -8 -19 -13 -24 -6 -3 5 1 9 9 9 8 0 15 -2 15 -3z
m56 -6 c3 -4 -2 -5 -13 -4 -10 2 -25 -2 -33 -8 -13 -9 -13 -9 -2 6 12 16 35
18 48 6z m148 4 c3 -5 -1 -9 -9 -9 -8 0 -12 4 -9 9 3 4 7 8 9 8 2 0 6 -4 9 -8z
m160 0 c3 -5 -1 -9 -9 -9 -8 0 -12 4 -9 9 3 4 7 8 9 8 2 0 6 -4 9 -8z m480 0
c3 -5 -1 -9 -9 -9 -8 0 -12 4 -9 9 3 4 7 8 9 8 2 0 6 -4 9 -8z m160 0 c3 -5
-1 -9 -9 -9 -8 0 -12 4 -9 9 3 4 7 8 9 8 2 0 6 -4 9 -8z m30 -8 c3 -8 2 -12
-4 -9 -6 3 -10 10 -10 16 0 14 7 11 14 -7z m370 7 c-8 -8 -34 -10 -38 -2 -3 4
6 7 19 7 14 0 22 -2 19 -5z m160 0 c-8 -8 -34 -10 -38 -2 -3 4 6 7 19 7 14 0
22 -2 19 -5z m133 -6 c0 -8 -4 -12 -9 -9 -4 3 -8 9 -8 15 0 5 4 9 8 9 5 0 9
-7 9 -15z m63 5 c0 -5 -2 -10 -4 -10 -3 0 -8 5 -11 10 -3 6 -1 10 4 10 6 0 11
-4 11 -10z m54 1 c-8 -8 -34 -10 -38 -2 -3 4 6 7 19 7 14 0 22 -2 19 -5z m143
-6 c0 -8 -4 -12 -9 -9 -5 3 -6 10 -3 15 9 13 12 11 12 -6z m-361 -21 c1 -9 0
-13 -4 -10 -3 4 -7 14 -8 22 -1 9 0 13 4 10 3 -4 7 -14 8 -22z m400 11 c-1 -8
-5 -17 -8 -21 -5 -4 -4 16 1 34 3 9 9 -1 7 -13z m-1758 -15 c-7 -10 -14 -17
-17 -15 -4 4 18 35 25 35 2 0 -1 -9 -8 -20z m68 -8 c-15 -15 -17 -15 -33 3
-16 17 -16 18 -1 6 19 -14 42 -6 32 11 -5 7 -2 8 5 3 10 -6 9 -11 -3 -23z
m104 25 c0 -2 -10 -13 -23 -25 -18 -17 -24 -19 -24 -8 0 8 4 13 8 11 3 -3 12
2 19 10 12 14 20 19 20 12z m385 -6 c3 -5 2 -12 -3 -15 -5 -3 -9 1 -9 9 0 17
3 19 12 6z m82 -9 c-17 -18 -51 -27 -41 -10 3 5 9 6 14 3 4 -3 13 2 20 10 7 8
15 15 18 15 3 0 -2 -8 -11 -18z m41 6 c-2 -7 4 -13 12 -13 8 0 14 6 12 13 -1
8 2 11 9 7 8 -5 6 -12 -5 -23 -12 -12 -18 -13 -30 -3 -9 8 -13 17 -10 22 8 13
14 11 12 -3z m566 0 c-3 -4 -9 -8 -15 -8 -5 0 -9 4 -9 8 0 5 7 9 15 9 8 0 12
-4 9 -9z m33 5 c-4 -3 -1 -13 6 -22 11 -14 10 -14 -5 -2 -16 12 -16 31 -1 31
4 0 3 -3 0 -7z m127 -5 c-3 -4 -9 -8 -15 -8 -5 0 -9 4 -9 8 0 5 7 9 15 9 8 0
12 -4 9 -9z m276 0 c0 -4 -4 -8 -9 -8 -6 0 -12 4 -15 8 -3 5 1 9 9 9 8 0 15
-4 15 -9z m-1307 -11 c4 3 7 1 7 -5 0 -17 -16 -15 -31 6 -12 15 -12 16 2 5 9
-7 19 -10 22 -6z m147 -8 c0 -5 -4 -9 -8 -9 -5 0 -9 7 -9 15 0 8 4 12 9 9 4
-3 8 -9 8 -15z m681 4 c13 -16 12 -17 -3 -4 -10 7 -18 15 -18 17 0 8 8 3 21
-13z m-1297 -1 c3 -5 -1 -9 -9 -9 -8 0 -12 4 -9 9 3 4 7 8 9 8 2 0 6 -4 9 -8z
m296 -2 c0 -5 -5 -10 -11 -10 -5 0 -7 5 -4 10 3 6 8 10 11 10 2 0 4 -4 4 -10z
m33 -8 c15 -16 15 -19 2 -19 -8 0 -13 3 -10 5 3 3 0 11 -6 19 -17 20 -5 16 14
-5z m73 6 c4 -7 3 -8 -5 -4 -6 4 -20 2 -29 -6 -15 -12 -16 -11 -3 5 16 20 27
22 37 5z m154 3 c0 -6 -4 -12 -8 -15 -5 -3 -9 1 -9 9 0 8 4 15 9 15 4 0 8 -4
8 -9z m340 4 c0 -7 -30 -13 -34 -7 -3 4 4 9 15 9 10 1 19 0 19 -2z m645 -5
c-3 -5 -12 -10 -18 -10 -7 0 -6 4 3 10 19 12 23 12 15 0z m108 -8 c14 -15 14
-19 3 -19 -8 0 -14 5 -13 11 1 6 -5 11 -13 11 -8 0 -14 -6 -12 -13 1 -8 -2
-11 -8 -7 -8 5 -7 11 1 21 15 18 23 18 42 -4z m57 14 c0 -2 -8 -10 -17 -17
-16 -13 -17 -12 -4 4 13 16 21 21 21 13z m107 -3 c-4 -3 -2 -11 3 -18 7 -8 6
-12 -3 -12 -7 0 -14 9 -14 19 -1 10 3 18 9 18 6 0 8 -3 5 -7z m117 -4 c3 -3
-5 -5 -19 -5 -13 0 -22 3 -19 7 4 8 30 6 38 -2z m-157 -14 c0 -8 -4 -12 -9 -9
-5 3 -6 10 -3 15 9 13 12 11 12 -6z m-2000 -10 c0 -8 -4 -12 -9 -9 -5 3 -6 10
-3 15 9 13 12 11 12 -6z m199 -10 c1 -8 -1 -17 -5 -19 -4 -3 -7 6 -7 19 0 25
8 25 12 0z m84 17 c0 -5 -7 -9 -15 -9 -8 0 -12 4 -9 9 3 4 9 8 15 8 5 0 9 -4
9 -8z m604 0 c3 -5 -1 -9 -9 -9 -8 0 -15 4 -15 9 0 4 4 8 9 8 6 0 12 -4 15 -8z
m512 -17 c1 -8 -5 -20 -14 -27 -15 -11 -15 -11 -6 2 6 8 10 23 8 33 -1 11 0
16 4 13 3 -4 7 -13 8 -21z m320 -11 c0 -13 -2 -22 -5 -19 -3 3 -6 17 -7 31 0
13 2 22 5 19 3 -3 6 -17 7 -31z m393 22 c9 -11 9 -16 -1 -22 -7 -4 -10 -4 -6
1 4 4 3 14 -3 22 -6 7 -9 13 -6 13 2 0 10 -6 16 -14z m-2012 -11 c0 -8 -4 -15
-9 -15 -10 0 -11 14 -1 23 9 10 10 9 10 -8z m420 0 c0 -8 -4 -12 -9 -9 -5 3
-6 10 -3 15 9 13 12 11 12 -6z m318 6 c3 -5 2 -12 -3 -15 -5 -3 -9 1 -9 9 0
17 3 19 12 6z m264 -4 c8 -10 7 -14 -2 -14 -8 0 -14 6 -14 14 0 7 1 13 2 13 2
0 8 -6 14 -13z m358 -2 c0 -8 -4 -15 -9 -15 -10 0 -11 14 -1 23 9 10 10 9 10
-8z m778 6 c3 -5 2 -12 -3 -15 -5 -3 -9 1 -9 9 0 17 3 19 12 6z m65 -12 c0 -5
-4 -9 -8 -9 -5 0 -9 7 -9 15 0 8 4 12 9 9 4 -3 8 -9 8 -15z m-2246 0 c3 -3 -5
-5 -19 -5 -13 0 -22 3 -19 7 4 8 30 6 38 -2z m310 3 c3 -5 -1 -9 -9 -9 -8 0
-12 4 -9 9 3 4 7 8 9 8 2 0 6 -4 9 -8z m31 -2 c3 -5 1 -10 -4 -10 -6 0 -11 5
-11 10 0 6 2 10 4 10 3 0 8 -4 11 -10z m69 2 c3 -5 -1 -9 -9 -9 -8 0 -12 4 -9
9 3 4 7 8 9 8 2 0 6 -4 9 -8z m260 -4 c-3 -4 -9 -8 -15 -8 -5 0 -9 4 -9 8 0 5
7 9 15 9 8 0 12 -4 9 -9z m280 4 c3 -5 -1 -9 -9 -9 -8 0 -12 4 -9 9 3 4 7 8 9
8 2 0 6 -4 9 -8z m31 -2 c3 -5 1 -10 -4 -10 -6 0 -11 5 -11 10 0 6 2 10 4 10
3 0 8 -4 11 -10z m529 1 c-8 -8 -34 -10 -38 -2 -3 4 6 7 19 7 14 0 22 -2 19
-5z m250 0 c-8 -8 -34 -10 -38 -2 -3 4 6 7 19 7 14 0 22 -2 19 -5z m146 3 c0
-8 -19 -13 -24 -6 -3 5 1 9 9 9 8 0 15 -2 15 -3z m-364 -40 c0 -13 -2 -22 -5
-19 -3 3 -6 17 -7 31 0 13 2 22 5 19 3 -3 6 -17 7 -31z m-1639 11 c0 -8 -4
-12 -9 -9 -5 3 -6 10 -3 15 9 13 12 11 12 -6z m207 7 c3 -5 -1 -9 -9 -9 -8 0
-12 4 -9 9 3 4 7 8 9 8 2 0 6 -4 9 -8z m792 -18 c1 -9 0 -13 -4 -10 -3 4 -7
14 -8 22 -1 9 0 13 4 10 3 -4 7 -14 8 -22z m561 11 c0 -8 -4 -12 -9 -9 -5 3
-6 10 -3 15 9 13 12 11 12 -6z m127 3 c-3 -4 -9 -8 -15 -8 -5 0 -9 4 -9 8 0 5
7 9 15 9 8 0 12 -4 9 -9z m40 4 c3 -5 -1 -9 -9 -9 -8 0 -12 4 -9 9 3 4 7 8 9
8 2 0 6 -4 9 -8z m-1669 -11 c3 -5 2 -12 -3 -15 -5 -3 -9 1 -9 9 0 17 3 19 12
6z m1802 -6 c0 -8 -4 -12 -9 -9 -5 3 -6 10 -3 15 9 13 12 11 12 -6z m160 0 c0
-8 -4 -12 -9 -9 -5 3 -6 10 -3 15 9 13 12 11 12 -6z m-1680 -10 c0 -8 -4 -12
-9 -9 -5 3 -6 10 -3 15 9 13 12 11 12 -6z m173 9 c0 -8 -19 -13 -24 -6 -3 5 1
9 9 9 8 0 15 -2 15 -3z m640 0 c0 -8 -19 -13 -24 -6 -3 5 1 9 9 9 8 0 15 -2
15 -3z m336 -6 c3 -4 -1 -5 -10 -4 -8 1 -18 5 -22 8 -3 4 1 5 10 4 8 -1 18 -5
22 -8z m298 4 c3 -5 -1 -9 -9 -9 -8 0 -12 4 -9 9 3 4 7 8 9 8 2 0 6 -4 9 -8z
m131 -2 c3 -5 1 -10 -4 -10 -6 0 -11 5 -11 10 0 6 2 10 4 10 3 0 8 -4 11 -10z
m160 0 c3 -5 1 -10 -4 -10 -6 0 -11 5 -11 10 0 6 2 10 4 10 3 0 8 -4 11 -10z
m115 4 c0 -8 -19 -13 -24 -6 -3 5 1 9 9 9 8 0 15 -2 15 -3z m-1795 -13 c3 -5
2 -12 -3 -15 -5 -3 -9 1 -9 9 0 17 3 19 12 6z m644 -4 c8 -10 7 -14 -2 -14 -8
0 -14 6 -14 14 0 7 1 13 2 13 2 0 8 -6 14 -13z m356 4 c3 -5 2 -12 -3 -15 -5
-3 -9 1 -9 9 0 17 3 19 12 6z m321 -17 c1 -9 0 -13 -4 -10 -3 4 -7 14 -8 22
-1 9 0 13 4 10 3 -4 7 -14 8 -22z m-1516 10 c0 -8 -19 -13 -24 -6 -3 5 1 9 9
9 8 0 15 -2 15 -3z m245 -3 c-9 -8 -36 -10 -30 -2 2 4 11 8 20 8 8 0 13 -3 10
-6z m645 3 c0 -8 -19 -13 -24 -6 -3 5 1 9 9 9 8 0 15 -2 15 -3z m465 -12 c-3
-3 -11 0 -18 7 -9 10 -8 11 6 5 10 -3 15 -9 12 -12z m45 10 c0 -5 -7 -9 -15
-9 -8 0 -12 4 -9 9 3 4 9 8 15 8 5 0 9 -4 9 -8z m-1444 -26 c0 -14 -3 -23 -7
-20 -6 3 -6 22 0 42 3 10 7 -2 7 -22z m1360 0 c0 -14 -3 -23 -7 -20 -6 3 -6
22 0 42 3 10 7 -2 7 -22z m343 11 c8 -10 7 -14 -2 -14 -8 0 -14 6 -14 14 0 7
1 13 2 13 2 0 8 -6 14 -13z m56 4 c3 -5 2 -12 -3 -15 -5 -3 -9 1 -9 9 0 17 3
19 12 6z m104 -4 c8 -10 7 -14 -2 -14 -8 0 -14 6 -14 14 0 7 1 13 2 13 2 0 8
-6 14 -13z m56 4 c3 -5 2 -12 -3 -15 -5 -3 -9 1 -9 9 0 17 3 19 12 6z m-1815
-10 c0 -6 -4 -12 -8 -15 -5 -3 -9 1 -9 9 0 8 4 15 9 15 4 0 8 -4 8 -9z m64 0
c-8 -8 -34 -10 -38 -2 -3 4 6 7 19 7 14 0 22 -2 19 -5z m153 -6 c0 -8 -4 -12
-9 -9 -5 3 -6 10 -3 15 9 13 12 11 12 -6z m123 5 c0 -4 -7 -7 -15 -6 -23 3
-26 12 -5 13 11 1 20 -2 20 -7z m34 2 c3 -5 -1 -9 -9 -9 -8 0 -12 4 -9 9 3 4
7 8 9 8 2 0 6 -4 9 -8z m163 -7 c0 -8 -4 -12 -9 -9 -5 3 -6 10 -3 15 9 13 12
11 12 -6z m123 7 c0 -5 -7 -9 -15 -9 -8 0 -12 4 -9 9 3 4 9 8 15 8 5 0 9 -4 9
-8z m40 2 c0 -8 -19 -13 -24 -6 -3 5 1 9 9 9 8 0 15 -2 15 -3z m157 -9 c0 -8
-4 -12 -9 -9 -5 3 -6 10 -3 15 9 13 12 11 12 -6z m259 3 c3 -4 -2 -5 -13 -4
-10 2 -25 -2 -33 -8 -13 -9 -13 -9 -2 6 12 16 35 18 48 6z m84 3 c0 -6 -4 -12
-8 -15 -5 -3 -9 1 -9 9 0 8 4 15 9 15 4 0 8 -4 8 -9z m235 -2 c3 -3 -6 -5 -19
-5 -14 1 -28 4 -31 7 -3 3 6 5 19 5 14 -1 28 -4 31 -7z m85 2 c0 -6 -4 -12 -8
-15 -5 -3 -9 1 -9 9 0 8 4 15 9 15 4 0 8 -4 8 -9z m-1425 -10 c3 -5 2 -12 -3
-15 -5 -3 -9 1 -9 9 0 17 3 19 12 6z m1602 -4 c0 -8 -6 -14 -14 -14 -9 0 -10
4 -2 14 6 7 12 13 14 13 1 0 2 -6 2 -13z m-1873 -9 c-3 -4 -9 -8 -15 -8 -5 0
-9 4 -9 8 0 5 7 9 15 9 8 0 12 -4 9 -9z m356 0 c0 -4 -4 -8 -9 -8 -6 0 -12 4
-15 8 -3 5 1 9 9 9 8 0 15 -4 15 -9z m320 0 c0 -4 -4 -8 -9 -8 -6 0 -12 4 -15
8 -3 5 1 9 9 9 8 0 15 -4 15 -9z m1360 8 c0 -2 -7 -7 -16 -10 -8 -3 -12 -2 -9
4 6 10 25 14 25 6z m-1583 -21 c0 -8 -4 -15 -9 -15 -10 0 -11 14 -1 23 9 10
10 9 10 -8z m180 0 c0 -8 -4 -15 -9 -15 -10 0 -11 14 -1 23 9 10 10 9 10 -8z
m139 0 c-1 -8 -5 -17 -8 -21 -5 -4 -4 16 1 34 3 9 9 -1 7 -13z m44 -6 c0 -5
-4 -9 -8 -9 -5 0 -9 7 -9 15 0 8 4 12 9 9 4 -3 8 -9 8 -15z m1296 6 c-1 -8 -5
-17 -8 -21 -5 -4 -4 16 1 34 3 9 9 -1 7 -13z m-2150 -7 c3 -4 -1 -5 -10 -4 -8
1 -18 5 -22 8 -3 4 1 5 10 4 8 -1 18 -5 22 -8z m94 0 c0 -4 -4 -8 -9 -8 -6 0
-12 4 -15 8 -3 5 1 9 9 9 8 0 15 -4 15 -9z m115 2 c3 -5 1 -10 -4 -10 -6 0
-11 5 -11 10 0 6 2 10 4 10 3 0 8 -4 11 -10z m222 3 c-4 -3 -2 -11 3 -18 7 -8
6 -12 -3 -12 -7 0 -14 9 -14 19 -1 10 3 18 9 18 6 0 8 -3 5 -7z m149 -5 c3 -4
-1 -5 -10 -4 -8 1 -18 5 -22 8 -3 4 1 5 10 4 8 -1 18 -5 22 -8z m171 -6 c0
-10 -7 -19 -14 -19 -9 0 -10 4 -3 12 5 7 7 15 3 18 -3 4 -1 7 5 7 6 0 10 -8 9
-18z m320 11 c-4 -3 -2 -11 3 -18 7 -8 6 -12 -3 -12 -7 0 -14 9 -14 19 -1 10
3 18 9 18 6 0 8 -3 5 -7z m39 -19 c1 -9 0 -13 -4 -10 -3 4 -7 14 -8 22 -1 9 0
13 4 10 3 -4 7 -14 8 -22z m350 14 c3 -4 -1 -5 -10 -4 -8 1 -18 5 -22 8 -3 4
1 5 10 4 8 -1 18 -5 22 -8z m89 2 c3 -5 1 -10 -4 -10 -6 0 -11 5 -11 10 0 6 2
10 4 10 3 0 8 -4 11 -10z m36 -7 c13 -16 12 -17 -3 -4 -10 7 -18 15 -18 17 0
8 8 3 21 -13z m78 3 c8 -10 9 -16 1 -21 -6 -4 -9 -1 -8 7 2 7 -4 13 -12 13 -8
0 -14 -5 -13 -11 1 -6 -5 -11 -13 -11 -11 0 -11 4 3 19 19 22 27 22 42 4z
m186 3 c3 -3 -6 -5 -19 -5 -14 1 -28 4 -31 7 -3 3 6 5 19 5 14 -1 28 -4 31 -7z
m160 0 c3 -3 -6 -5 -19 -5 -14 1 -28 4 -31 7 -3 3 6 5 19 5 14 -1 28 -4 31 -7z
m-2138 -12 c0 -8 -6 -14 -14 -14 -9 0 -10 4 -2 14 6 7 12 13 14 13 1 0 2 -6 2
-13z m38 4 c3 -5 2 -12 -3 -15 -5 -3 -9 1 -9 9 0 17 3 19 12 6z m482 -6 c0 -8
-4 -12 -9 -9 -5 3 -6 10 -3 15 9 13 12 11 12 -6z m318 6 c3 -5 2 -12 -3 -15
-5 -3 -9 1 -9 9 0 17 3 19 12 6z m322 -6 c0 -8 -4 -12 -9 -9 -5 3 -6 10 -3 15
9 13 12 11 12 -6z m1039 0 c-1 -8 -5 -17 -8 -21 -5 -4 -4 16 1 34 3 9 9 -1 7
-13z m-1436 -3 c0 -5 -7 -9 -15 -9 -8 0 -12 4 -9 9 3 4 9 8 15 8 5 0 9 -4 9
-8z m1121 -6 c-6 -7 -9 -22 -5 -32 5 -18 5 -18 -6 -1 -9 14 -9 22 0 33 7 7 15
14 17 14 3 0 0 -6 -6 -14z m169 9 c0 -2 -6 -8 -13 -14 -10 -8 -14 -7 -14 2 0
8 6 14 14 14 7 0 13 -1 13 -2z m26 -36 c1 -22 -2 -35 -6 -29 -7 12 -5 70 3 70
1 0 3 -18 3 -41z m319 24 c-1 -10 3 -25 9 -33 9 -13 9 -13 -6 -2 -13 10 -16
26 -9 50 4 11 9 -2 6 -15z m-2258 -6 c0 -7 -9 -14 -19 -14 -10 -1 -18 3 -18 8
0 6 4 8 9 4 5 -3 12 -1 16 5 8 13 12 13 12 -3z m296 0 c4 3 7 1 7 -5 0 -6 -8
-10 -18 -9 -10 0 -19 7 -19 14 0 9 4 10 12 3 7 -5 15 -7 18 -3z m364 -2 c0 -8
-4 -12 -9 -9 -5 3 -6 10 -3 15 9 13 12 11 12 -6z m263 -6 c0 -5 -4 -9 -8 -9
-5 0 -9 7 -9 15 0 8 4 12 9 9 4 -3 8 -9 8 -15z m617 6 c0 -8 -4 -12 -9 -9 -5
3 -6 10 -3 15 9 13 12 11 12 -6z m-1587 -1 c0 -8 -19 -13 -24 -6 -3 5 1 9 9 9
8 0 15 -2 15 -3z m110 -4 c0 -5 -5 -10 -11 -10 -5 0 -7 5 -4 10 3 6 8 10 11
10 2 0 4 -4 4 -10z m54 -1 c3 -3 -5 -5 -19 -5 -13 0 -22 3 -19 7 4 8 30 6 38
-2z m70 0 c3 -3 -5 -5 -19 -5 -13 0 -22 3 -19 7 4 8 30 6 38 -2z m31 1 c3 -5
1 -10 -4 -10 -6 0 -11 5 -11 10 0 6 2 10 4 10 3 0 8 -4 11 -10z m125 4 c0 -8
-19 -13 -24 -6 -3 5 1 9 9 9 8 0 15 -2 15 -3z m154 -2 c3 -5 -1 -9 -9 -9 -8 0
-12 4 -9 9 3 4 7 8 9 8 2 0 6 -4 9 -8z m340 -1 c-7 -8 -54 -9 -49 -1 2 3 15 6
29 6 14 0 23 -2 20 -5z m160 0 c-8 -8 -34 -10 -38 -2 -3 4 6 7 19 7 14 0 22
-2 19 -5z m303 2 c-4 -3 -1 -13 6 -22 11 -14 10 -14 -5 -2 -16 12 -16 31 -1
31 4 0 3 -3 0 -7z m407 -2 c-8 -8 -34 -10 -38 -2 -3 4 6 7 19 7 14 0 22 -2 19
-5z m73 -6 c0 -8 -4 -12 -9 -9 -5 3 -6 10 -3 15 9 13 12 11 12 -6z m60 -2 c0
-9 -4 -10 -14 -2 -7 6 -13 12 -13 14 0 1 6 2 13 2 8 0 14 -6 14 -14z m160 2
c0 -8 -4 -12 -9 -9 -4 3 -8 9 -8 15 0 5 4 9 8 9 5 0 9 -7 9 -15z m114 -2 c12
-16 12 -17 -2 -6 -9 7 -20 9 -24 5 -5 -4 -5 -1 -1 6 9 16 11 15 27 -5z m-1255
-8 c-1 -8 -5 -17 -8 -21 -5 -4 -4 16 1 34 3 9 9 -1 7 -13z m-319 -10 c0 -8 -4
-12 -9 -9 -5 3 -6 10 -3 15 9 13 12 11 12 -6z m43 0 c-5 -7 -7 -15 -3 -18 3
-4 1 -7 -5 -7 -6 0 -10 8 -9 18 0 10 7 19 14 19 9 0 10 -4 3 -12z m44 7 c3 -5
-1 -9 -9 -9 -8 0 -12 4 -9 9 3 4 7 8 9 8 2 0 6 -4 9 -8z m846 3 c0 -2 -6 -8
-13 -14 -10 -8 -14 -7 -14 2 0 8 6 14 14 14 7 0 13 -1 13 -2z m34 -3 c3 -5 -1
-9 -9 -9 -8 0 -12 4 -9 9 3 4 7 8 9 8 2 0 6 -4 9 -8z m836 -4 c0 -4 -4 -8 -9
-8 -6 0 -12 4 -15 8 -3 5 1 9 9 9 8 0 15 -4 15 -9z m-2425 -7 c3 -5 2 -12 -3
-15 -5 -3 -9 1 -9 9 0 17 3 19 12 6z m442 -6 c0 -8 -4 -12 -9 -9 -5 3 -6 10
-3 15 9 13 12 11 12 -6z m640 0 c0 -8 -4 -12 -9 -9 -5 3 -6 10 -3 15 9 13 12
11 12 -6z m678 6 c3 -5 2 -12 -3 -15 -5 -3 -9 1 -9 9 0 17 3 19 12 6z m701
-16 c-1 -13 -4 -27 -7 -30 -5 -4 -4 41 0 53 4 10 8 -2 7 -23z m-2516 5 c0 -5
-5 -10 -11 -10 -5 0 -7 5 -4 10 3 6 8 10 11 10 2 0 4 -4 4 -10z m140 4 c0 -8
-19 -13 -24 -6 -3 5 1 9 9 9 8 0 15 -2 15 -3z m290 0 c0 -8 -19 -13 -24 -6 -3
5 1 9 9 9 8 0 15 -2 15 -3z m125 -4 c3 -5 1 -10 -4 -10 -6 0 -11 5 -11 10 0 6
2 10 4 10 3 0 8 -4 11 -10z m62 -7 c0 -9 -4 -10 -14 -2 -7 6 -13 12 -13 14 0
1 6 2 13 2 8 0 14 -6 14 -14z m207 9 c3 -5 -1 -9 -9 -9 -8 0 -12 4 -9 9 3 4 7
8 9 8 2 0 6 -4 9 -8z m73 -9 c0 -9 -4 -10 -14 -2 -7 6 -13 12 -13 14 0 1 6 2
13 2 8 0 14 -6 14 -14z m173 11 c0 -8 -19 -13 -24 -6 -3 5 1 9 9 9 8 0 15 -2
15 -3z m125 -4 c3 -5 1 -10 -4 -10 -6 0 -11 5 -11 10 0 6 2 10 4 10 3 0 8 -4
11 -10z m509 -41 c-16 -15 -21 -17 -21 -5 0 8 5 14 11 13 6 -1 11 5 11 13 0 8
-6 14 -13 12 -8 -1 -11 2 -7 9 5 8 12 6 23 -5 15 -15 15 -18 -4 -37z m56 41
c0 -5 -5 -10 -11 -10 -5 0 -7 5 -4 10 3 6 8 10 11 10 2 0 4 -4 4 -10z m160 0
c0 -5 -2 -10 -4 -10 -3 0 -8 5 -11 10 -3 6 -1 10 4 10 6 0 11 -4 11 -10z m55
1 c3 -5 2 -12 -3 -15 -5 -3 -9 1 -9 9 0 17 3 19 12 6z m160 0 c3 -5 2 -12 -3
-15 -5 -3 -9 1 -9 9 0 17 3 19 12 6z m159 1 c3 -5 -1 -9 -9 -9 -8 0 -12 4 -9
9 3 4 7 8 9 8 2 0 6 -4 9 -8z m76 4 c0 -2 -8 -10 -17 -17 -16 -13 -17 -12 -4
4 13 16 21 21 21 13z m-2051 -19 c8 -10 7 -14 -2 -14 -8 0 -14 6 -14 14 0 7 1
13 2 13 2 0 8 -6 14 -13z m437 -13 c1 -9 0 -13 -4 -10 -3 4 -7 14 -8 22 -1 9
0 13 4 10 3 -4 7 -14 8 -22z m721 11 c0 -8 -4 -12 -9 -9 -5 3 -6 10 -3 15 9
13 12 11 12 -6z m960 0 c0 -8 -4 -12 -9 -9 -5 3 -6 10 -3 15 9 13 12 11 12 -6z
m-2477 -4 c0 -6 -4 -12 -8 -15 -5 -3 -9 1 -9 9 0 8 4 15 9 15 4 0 8 -4 8 -9z
m196 -16 c1 -8 -1 -17 -5 -19 -4 -3 -7 6 -7 19 0 25 8 25 12 0z m44 19 c0 -8
-19 -13 -24 -6 -3 5 1 9 9 9 8 0 15 -2 15 -3z m40 -2 c0 -5 -7 -9 -15 -9 -8 0
-12 4 -9 9 3 4 9 8 15 8 5 0 9 -4 9 -8z m130 2 c0 -8 -19 -13 -24 -6 -3 5 1 9
9 9 8 0 15 -2 15 -3z m26 -18 c0 -14 -3 -23 -7 -20 -6 3 -6 22 0 42 3 10 7 -2
7 -22z m568 16 c3 -5 -1 -9 -9 -9 -8 0 -15 4 -15 9 0 4 4 8 9 8 6 0 12 -4 15
-8z m46 2 c0 -8 -19 -13 -24 -6 -3 5 1 9 9 9 8 0 15 -2 15 -3z m26 -19 c-1
-13 -4 -27 -7 -30 -5 -4 -4 41 0 53 4 10 8 -2 7 -23z m198 9 c3 -8 2 -12 -4
-9 -6 3 -10 10 -10 16 0 14 7 11 14 -7z m1081 -1 c-1 -10 3 -25 9 -33 9 -13 9
-13 -6 -2 -13 10 -16 26 -9 50 4 11 9 -2 6 -15z m-2318 -8 c0 -8 -4 -12 -9 -9
-5 3 -6 10 -3 15 9 13 12 11 12 -6z m60 2 c0 -8 -6 -14 -14 -14 -9 0 -10 4 -2
14 6 7 12 13 14 13 1 0 2 -6 2 -13z m442 0 c8 -10 7 -14 -2 -14 -8 0 -14 6
-14 14 0 7 1 13 2 13 2 0 8 -6 14 -13z m56 4 c3 -5 2 -12 -3 -15 -5 -3 -9 1
-9 9 0 17 3 19 12 6z m162 -6 c0 -8 -4 -12 -9 -9 -5 3 -6 10 -3 15 9 13 12 11
12 -6z m423 -6 c0 -5 -4 -9 -8 -9 -5 0 -9 7 -9 15 0 8 4 12 9 9 4 -3 8 -9 8
-15z m56 -4 c1 -8 -1 -17 -5 -19 -4 -3 -7 6 -7 19 0 25 8 25 12 0z m560 1 c0
-14 -3 -23 -7 -20 -6 3 -6 22 0 42 3 10 7 -2 7 -22z m61 9 c0 -8 -4 -15 -9
-15 -10 0 -11 14 -1 23 9 10 10 9 10 -8z m-1201 -7 c4 -7 3 -10 -1 -5 -5 4
-18 -1 -29 -10 -21 -18 -21 -18 -2 5 22 26 23 26 32 10z m224 0 c0 -6 -3 -8
-7 -5 -3 4 -11 2 -18 -3 -8 -7 -12 -6 -12 3 0 7 9 14 19 14 10 1 18 -3 18 -9z
m34 4 c3 -5 -1 -9 -9 -9 -8 0 -12 4 -9 9 3 4 7 8 9 8 2 0 6 -4 9 -8z m657 -9
c12 -16 12 -17 -2 -6 -9 7 -20 9 -24 5 -5 -4 -5 -1 -1 6 9 16 11 15 27 -5z
m79 11 c0 -8 -19 -13 -24 -6 -3 5 1 9 9 9 8 0 15 -2 15 -3z m30 2 c0 -3 -4 -8
-10 -11 -5 -3 -10 -1 -10 4 0 6 5 11 10 11 6 0 10 -2 10 -4z m364 -7 c3 -3 -5
-5 -19 -5 -13 0 -22 3 -19 7 4 8 30 6 38 -2z m170 2 c-7 -8 -54 -9 -49 -1 2 3
15 6 29 6 14 0 23 -2 20 -5z m203 -6 c0 -8 -4 -12 -9 -9 -4 3 -8 9 -8 15 0 5
4 9 8 9 5 0 9 -7 9 -15z m107 4 c3 -3 -5 -5 -19 -5 -13 0 -22 3 -19 7 4 8 30
6 38 -2z m-1805 -12 c8 -10 7 -14 -2 -14 -8 0 -14 6 -14 14 0 7 1 13 2 13 2 0
8 -6 14 -13z m-715 -5 c3 -5 -1 -9 -9 -9 -8 0 -12 4 -9 9 3 4 7 8 9 8 2 0 6
-4 9 -8z m1276 4 c0 -2 -7 -7 -16 -10 -8 -3 -12 -2 -9 4 6 10 25 14 25 6z
m677 -18 c1 -10 -3 -18 -9 -18 -6 0 -8 3 -5 7 4 3 2 11 -3 18 -7 8 -6 12 3 12
7 0 14 -9 14 -19z m38 13 c3 -5 2 -12 -3 -15 -5 -3 -9 1 -9 9 0 17 3 19 12 6z
m125 -3 c0 -4 -4 -8 -9 -8 -6 0 -12 4 -15 8 -3 5 1 9 9 9 8 0 15 -4 15 -9z
m29 -14 c-6 -8 -17 -14 -23 -14 -6 0 -3 5 7 11 9 6 14 15 11 21 -4 7 -2 8 5 4
9 -6 9 -11 0 -22z m85 17 c3 -5 -2 -15 -12 -22 -15 -12 -16 -12 -5 2 7 9 10
19 6 22 -3 4 -4 7 0 7 3 0 8 -4 11 -9z m-2073 -18 c13 -16 12 -17 -3 -4 -10 7
-18 15 -18 17 0 8 8 3 21 -13z m319 13 c0 -2 -8 -10 -17 -17 -16 -13 -17 -12
-4 4 13 16 21 21 21 13z m640 0 c0 -2 -6 -9 -14 -15 -11 -9 -16 -9 -22 0 -4 7
-3 9 4 5 6 -3 13 -2 17 4 6 10 15 14 15 6z m499 -9 c8 -10 7 -14 -2 -14 -8 0
-14 6 -14 14 0 7 1 13 2 13 2 0 8 -6 14 -13z m461 9 c0 -2 -8 -10 -17 -17 -16
-13 -17 -12 -4 4 13 16 21 21 21 13z m457 -11 c0 -8 -4 -12 -9 -9 -5 3 -6 10
-3 15 9 13 12 11 12 -6z m-2432 -6 c3 -3 -6 -5 -19 -5 -14 1 -28 4 -31 7 -3 3
6 5 19 5 14 -1 28 -4 31 -7z m192 -6 c0 -9 -4 -10 -14 -2 -7 6 -13 12 -13 14
0 1 6 2 13 2 8 0 14 -6 14 -14z m53 12 c0 -2 -6 -8 -13 -14 -10 -8 -14 -7 -14
2 0 8 6 14 14 14 7 0 13 -1 13 -2z m224 -6 c3 -2 -10 -5 -29 -5 -18 0 -32 3
-30 7 5 7 52 6 59 -2z m86 5 c0 -8 -19 -13 -24 -6 -3 5 1 9 9 9 8 0 15 -2 15
-3z m140 -28 c0 -6 -5 -3 -11 7 -6 9 -15 14 -21 11 -7 -4 -8 -2 -4 5 9 14 36
-3 36 -23z m77 17 c0 -9 -4 -10 -14 -2 -7 6 -13 12 -13 14 0 1 6 2 13 2 8 0
14 -6 14 -14z m98 8 c3 -5 2 -12 -3 -15 -5 -3 -9 1 -9 9 0 17 3 19 12 6z m40
-9 c-3 -3 -11 0 -18 7 -9 10 -8 11 6 5 10 -3 15 -9 12 -12z m189 9 c-7 -8 -54
-9 -49 -1 2 3 15 6 29 6 14 0 23 -2 20 -5z m161 0 c-9 -8 -36 -10 -30 -2 2 4
11 8 20 8 8 0 13 -3 10 -6z m391 -27 c1 -9 -1 -13 -4 -9 -4 4 -7 10 -7 13 0 4
-4 14 -9 22 -7 12 -6 13 4 3 8 -7 15 -20 16 -29z m98 27 c-7 -8 -54 -9 -49 -1
2 3 15 6 29 6 14 0 23 -2 20 -5z m471 0 c-9 -8 -36 -10 -30 -2 2 4 11 8 20 8
8 0 13 -3 10 -6z m-1408 -14 c0 -8 -6 -14 -14 -14 -9 0 -10 4 -2 14 6 7 12 13
14 13 1 0 2 -6 2 -13z m-241 -33 c0 -13 -2 -22 -5 -19 -3 3 -6 17 -7 31 0 13
2 22 5 19 3 -3 6 -17 7 -31z m41 19 c0 -9 -4 -10 -14 -2 -7 6 -13 12 -13 14 0
1 6 2 13 2 8 0 14 -6 14 -14z m573 11 c0 -8 -19 -13 -24 -6 -3 5 1 9 9 9 8 0
15 -2 15 -3z m185 -11 c-1 -10 3 -25 9 -33 9 -13 9 -13 -6 -2 -13 10 -16 26
-9 50 4 11 9 -2 6 -15z m961 -7 c0 -14 -3 -23 -7 -20 -6 3 -6 22 0 42 3 10 7
-2 7 -22z m-2320 -10 c0 -14 -3 -23 -7 -20 -6 3 -6 22 0 42 3 10 7 -2 7 -22z
m61 9 c0 -8 -4 -15 -9 -15 -10 0 -11 14 -1 23 9 10 10 9 10 -8z m283 -6 c0 -5
-4 -9 -8 -9 -5 0 -9 7 -9 15 0 8 4 12 9 9 4 -3 8 -9 8 -15z m56 -4 c1 -8 -1
-17 -5 -19 -4 -3 -7 6 -7 19 0 25 8 25 12 0z m321 10 c0 -8 -4 -12 -9 -9 -5 3
-6 10 -3 15 9 13 12 11 12 -6z m263 -6 c0 -5 -4 -9 -8 -9 -5 0 -9 7 -9 15 0 8
4 12 9 9 4 -3 8 -9 8 -15z m56 -4 c1 -8 -1 -17 -5 -19 -4 -3 -7 6 -7 19 0 25
8 25 12 0z m160 0 c1 -8 -1 -17 -5 -19 -4 -3 -7 6 -7 19 0 25 8 25 12 0z m401
10 c0 -8 -4 -12 -9 -9 -5 3 -6 10 -3 15 9 13 12 11 12 -6z m238 6 c3 -5 2 -12
-3 -15 -5 -3 -9 1 -9 9 0 17 3 19 12 6z m265 -12 c0 -5 -4 -9 -8 -9 -5 0 -9 7
-9 15 0 8 4 12 9 9 4 -3 8 -9 8 -15z m56 -4 c1 -8 -1 -17 -5 -19 -4 -3 -7 6
-7 19 0 25 8 25 12 0z m-2216 6 c0 -6 -4 -12 -8 -15 -5 -3 -9 1 -9 9 0 8 4 15
9 15 4 0 8 -4 8 -9z m235 -2 c3 -3 -6 -5 -19 -5 -14 1 -28 4 -31 7 -3 3 6 5
19 5 14 -1 28 -4 31 -7z m101 -1 c2 -3 -13 -5 -35 -4 -22 0 -37 4 -35 7 4 7
62 4 70 -3z m181 -3 c0 -8 -4 -12 -9 -9 -4 3 -8 9 -8 15 0 5 4 9 8 9 5 0 9 -7
9 -15z m203 6 c0 -6 -4 -12 -8 -15 -5 -3 -9 1 -9 9 0 8 4 15 9 15 4 0 8 -4 8
-9z m234 0 c-8 -8 -34 -10 -38 -2 -3 4 6 7 19 7 14 0 22 -2 19 -5z m203 -6 c0
-8 -4 -12 -9 -9 -4 3 -8 9 -8 15 0 5 4 9 8 9 5 0 9 -7 9 -15z m160 0 c0 -8 -4
-12 -9 -9 -4 3 -8 9 -8 15 0 5 4 9 8 9 5 0 9 -7 9 -15z m453 9 c0 -8 -19 -13
-24 -6 -3 5 1 9 9 9 8 0 15 -2 15 -3z m45 -3 c3 -5 2 -12 -3 -15 -5 -3 -9 1
-9 9 0 17 3 19 12 6z m259 0 c-7 -8 -54 -9 -49 -1 2 3 15 6 29 6 14 0 23 -2
20 -5z m203 -6 c0 -8 -4 -12 -9 -9 -4 3 -8 9 -8 15 0 5 4 9 8 9 5 0 9 -7 9
-15z m267 7 c3 -5 -1 -9 -9 -9 -8 0 -12 4 -9 9 3 4 7 8 9 8 2 0 6 -4 9 -8z
m-2368 -28 c1 -9 0 -13 -4 -10 -3 4 -7 14 -8 22 -1 9 0 13 4 10 3 -4 7 -14 8
-22z m-64 -8 c7 4 8 2 4 -5 -9 -14 -36 3 -36 23 0 6 5 3 11 -7 6 -9 15 -14 21
-11z m296 -2 c-12 -12 -17 -13 -23 -3 -5 8 -4 10 4 5 6 -4 14 0 17 9 4 9 9 13
12 10 3 -3 -1 -13 -10 -21z m567 17 c3 -5 2 -12 -3 -15 -5 -3 -9 1 -9 9 0 17
3 19 12 6z m615 4 c0 -2 -6 -8 -13 -14 -10 -8 -14 -7 -14 2 0 8 6 14 14 14 7
0 13 -1 13 -2z m34 -3 c3 -5 -1 -9 -9 -9 -8 0 -12 4 -9 9 3 4 7 8 9 8 2 0 6
-4 9 -8z m310 0 c3 -5 -1 -9 -9 -9 -8 0 -12 4 -9 9 3 4 7 8 9 8 2 0 6 -4 9 -8z
m43 -9 c0 -9 -4 -10 -14 -2 -7 6 -13 12 -13 14 0 1 6 2 13 2 8 0 14 -6 14 -14z
m39 -19 c0 -13 -2 -22 -5 -19 -3 3 -6 17 -7 31 0 13 2 22 5 19 3 -3 6 -17 7
-31z m79 27 c3 -5 2 -12 -3 -15 -5 -3 -9 1 -9 9 0 17 3 19 12 6z m77 -13 c-14
-14 -44 -20 -36 -7 3 5 10 7 15 4 5 -4 12 1 15 10 4 9 9 13 12 10 3 -3 0 -11
-6 -17z m248 18 c0 -2 -7 -7 -16 -10 -8 -3 -12 -2 -9 4 6 10 25 14 25 6z m40
-8 c0 -4 -4 -8 -9 -8 -6 0 -12 4 -15 8 -3 5 1 9 9 9 8 0 15 -4 15 -9z m-1408
-10 c-14 -14 -44 -20 -36 -7 3 5 9 7 14 4 5 -3 11 -1 15 5 3 5 9 10 13 10 3 0
1 -5 -6 -12z m665 -3 c0 -8 -4 -15 -9 -15 -10 0 -11 14 -1 23 9 10 10 9 10 -8z
m-1720 -10 c0 -8 -4 -12 -9 -9 -5 3 -6 10 -3 15 9 13 12 11 12 -6z m43 9 c0
-8 -19 -13 -24 -6 -3 5 1 9 9 9 8 0 15 -2 15 -3z m450 0 c0 -8 -19 -13 -24 -6
-3 5 1 9 9 9 8 0 15 -2 15 -3z m25 -3 c3 -5 2 -12 -3 -15 -5 -3 -9 1 -9 9 0
17 3 19 12 6z m216 -8 c13 -16 12 -17 -3 -4 -17 13 -22 21 -14 21 2 0 10 -8
17 -17z m73 9 c3 -5 -1 -9 -9 -9 -8 0 -12 4 -9 9 3 4 7 8 9 8 2 0 6 -4 9 -8z
m73 -9 c0 -9 -4 -10 -14 -2 -7 6 -13 12 -13 14 0 1 6 2 13 2 8 0 14 -6 14 -14z
m253 11 c0 -8 -19 -13 -24 -6 -3 5 1 9 9 9 8 0 15 -2 15 -3z m21 -17 c-10 -9
-11 -8 -5 6 3 10 9 15 12 12 3 -3 0 -11 -7 -18z m139 17 c0 -8 -19 -13 -24 -6
-3 5 1 9 9 9 8 0 15 -2 15 -3z m21 -17 c-10 -9 -11 -8 -5 6 3 10 9 15 12 12 3
-3 0 -11 -7 -18z m373 15 c3 -5 -1 -9 -9 -9 -8 0 -12 4 -9 9 3 4 7 8 9 8 2 0
6 -4 9 -8z m136 4 c0 -3 -4 -8 -10 -11 -5 -3 -10 -1 -10 4 0 6 5 11 10 11 6 0
10 -2 10 -4z m56 -8 c4 -7 3 -10 -1 -5 -5 4 -18 -1 -29 -10 -21 -18 -21 -18
-2 5 22 26 23 26 32 10z m374 6 c0 -8 -19 -13 -24 -6 -3 5 1 9 9 9 8 0 15 -2
15 -3z m25 -3 c3 -5 2 -12 -3 -15 -5 -3 -9 1 -9 9 0 17 3 19 12 6z m221 -16
c1 -8 -1 -17 -5 -19 -4 -3 -7 6 -7 19 0 25 8 25 12 0z m-1841 6 c3 -5 2 -12
-3 -15 -5 -3 -9 1 -9 9 0 17 3 19 12 6z m802 -6 c0 -8 -4 -12 -9 -9 -5 3 -6
10 -3 15 9 13 12 11 12 -6z m960 0 c0 -8 -4 -12 -9 -9 -5 3 -6 10 -3 15 9 13
12 11 12 -6z m-2281 -31 c0 -13 -2 -22 -5 -19 -3 3 -6 17 -7 31 0 13 2 22 5
19 3 -3 6 -17 7 -31z m44 30 c0 -8 -19 -13 -24 -6 -3 5 1 9 9 9 8 0 15 -2 15
-3z m40 -2 c0 -5 -7 -9 -15 -9 -8 0 -12 4 -9 9 3 4 9 8 15 8 5 0 9 -4 9 -8z
m84 0 c3 -5 -1 -9 -9 -9 -8 0 -15 4 -15 9 0 4 4 8 9 8 6 0 12 -4 15 -8z m46 2
c0 -8 -19 -13 -24 -6 -3 5 1 9 9 9 8 0 15 -2 15 -3z m26 -19 c-1 -13 -4 -27
-7 -30 -5 -4 -4 41 0 53 4 10 8 -2 7 -23z m244 17 c0 -5 -7 -9 -15 -9 -8 0
-12 4 -9 9 3 4 9 8 15 8 5 0 9 -4 9 -8z m324 0 c3 -5 -1 -9 -9 -9 -8 0 -15 4
-15 9 0 4 4 8 9 8 6 0 12 -4 15 -8z m46 2 c0 -8 -19 -13 -24 -6 -3 5 1 9 9 9
8 0 15 -2 15 -3z m1074 -2 c3 -5 -1 -9 -9 -9 -8 0 -15 4 -15 9 0 4 4 8 9 8 6
0 12 -4 15 -8z m46 2 c0 -8 -19 -13 -24 -6 -3 5 1 9 9 9 8 0 15 -2 15 -3z
m-1094 -29 c1 -8 -1 -17 -5 -19 -4 -3 -7 6 -7 19 0 25 8 25 12 0z m1120 0 c1
-8 -1 -17 -5 -19 -4 -3 -7 6 -7 19 0 25 8 25 12 0z m-2152 6 c-8 -8 -34 -10
-38 -2 -3 4 6 7 19 7 14 0 22 -2 19 -5z m570 0 c-8 -8 -34 -10 -38 -2 -3 4 6
7 19 7 14 0 22 -2 19 -5z m150 0 c-8 -8 -34 -10 -38 -2 -3 4 6 7 19 7 14 0 22
-2 19 -5z m36 5 c0 -3 -4 -8 -10 -11 -5 -3 -10 -1 -10 4 0 6 5 11 10 11 6 0
10 -2 10 -4z m60 -5 c0 -6 -4 -12 -8 -15 -5 -3 -9 1 -9 9 0 8 4 15 9 15 4 0 8
-4 8 -9z m74 -2 c3 -3 -5 -5 -19 -5 -13 0 -22 3 -19 7 4 8 30 6 38 -2z m320 2
c-8 -8 -34 -10 -38 -2 -3 4 6 7 19 7 14 0 22 -2 19 -5z m160 0 c-8 -8 -34 -10
-38 -2 -3 4 6 7 19 7 14 0 22 -2 19 -5z m43 -6 c0 -8 -4 -12 -9 -9 -4 3 -8 9
-8 15 0 5 4 9 8 9 5 0 9 -7 9 -15z m116 -5 c10 -12 9 -12 -3 -3 -8 6 -23 9
-33 8 -9 -2 -15 0 -12 5 7 12 33 6 48 -10z m77 14 c0 -8 -19 -13 -24 -6 -3 5
1 9 9 9 8 0 15 -2 15 -3z m30 2 c0 -3 -4 -8 -10 -11 -5 -3 -10 -1 -10 4 0 6 5
11 10 11 6 0 10 -2 10 -4z m80 -6 c0 -4 -7 -7 -15 -6 -23 3 -26 12 -5 13 11 1
20 -2 20 -7z m34 2 c3 -5 -1 -9 -9 -9 -8 0 -12 4 -9 9 3 4 7 8 9 8 2 0 6 -4 9
-8z m143 -9 c0 -9 -4 -10 -14 -2 -7 6 -13 12 -13 14 0 1 6 2 13 2 8 0 14 -6
14 -14z m63 7 c0 -5 -2 -10 -4 -10 -3 0 -8 5 -11 10 -3 6 -1 10 4 10 6 0 11
-4 11 -10z m40 4 c0 -8 -19 -13 -24 -6 -3 5 1 9 9 9 8 0 15 -2 15 -3z m334 -3
c-8 -8 -34 -10 -38 -2 -3 4 6 7 19 7 14 0 22 -2 19 -5z m43 -6 c0 -8 -4 -12
-9 -9 -4 3 -8 9 -8 15 0 5 4 9 8 9 5 0 9 -7 9 -15z m107 4 c3 -3 -5 -5 -19 -5
-13 0 -22 3 -19 7 4 8 30 6 38 -2z m-2448 -25 c1 -9 0 -13 -4 -10 -3 4 -7 14
-8 22 -1 9 0 13 4 10 3 -4 7 -14 8 -22z m480 11 c-1 -8 -8 -21 -16 -28 -10
-10 -11 -9 -4 3 5 8 9 18 10 23 3 14 4 17 8 17 2 0 3 -7 2 -15z m-559 -10 c0
-8 -4 -12 -9 -9 -5 3 -6 10 -3 15 9 13 12 11 12 -6z m127 3 c-3 -4 -9 -8 -15
-8 -5 0 -9 4 -9 8 0 5 7 9 15 9 8 0 12 -4 9 -9z m396 0 c0 -4 -4 -8 -9 -8 -6
0 -12 4 -15 8 -3 5 1 9 9 9 8 0 15 -4 15 -9z m640 0 c0 -4 -4 -8 -9 -8 -6 0
-12 4 -15 8 -3 5 1 9 9 9 8 0 15 -4 15 -9z m160 0 c0 -4 -4 -8 -9 -8 -6 0 -12
4 -15 8 -3 5 1 9 9 9 8 0 15 -4 15 -9z m517 -3 c0 -8 -4 -12 -9 -9 -5 3 -6 10
-3 15 9 13 12 11 12 -6z m443 3 c0 -4 -4 -8 -9 -8 -6 0 -12 4 -15 8 -3 5 1 9
9 9 8 0 15 -4 15 -9z m355 -6 c-3 -3 -11 0 -18 7 -9 10 -8 11 6 5 10 -3 15 -9
12 -12z m-2477 -17 c-3 -3 -9 2 -12 12 -6 14 -5 15 5 6 7 -7 10 -15 7 -18z
m322 21 c0 -2 -6 -9 -14 -15 -11 -9 -16 -9 -22 0 -4 7 -3 9 4 5 6 -3 13 -2 17
4 6 10 15 14 15 6z m713 -11 c-3 -9 -8 -14 -10 -11 -3 3 -2 9 2 15 9 16 15 13
8 -4z m163 -8 c0 -13 -6 -24 -13 -24 -6 0 -9 5 -5 11 4 6 7 14 8 19 5 26 10
23 10 -6z m260 -3 c1 -9 0 -13 -4 -10 -3 4 -7 14 -8 22 -1 9 0 13 4 10 3 -4 7
-14 8 -22z m81 13 c0 -8 -6 -14 -14 -14 -9 0 -10 4 -2 14 6 7 12 13 14 13 1 0
2 -6 2 -13z m180 -2 c0 -8 -4 -15 -9 -15 -10 0 -11 14 -1 23 9 10 10 9 10 -8z
m355 3 c-14 -14 -44 -20 -36 -7 3 5 9 7 14 4 5 -3 11 -1 15 5 3 5 9 10 13 10
3 0 1 -5 -6 -12z m81 -3 c-3 -9 -8 -14 -10 -11 -3 3 -2 9 2 15 9 16 15 13 8
-4z m218 1 c-12 -14 -35 -16 -47 -3 -4 3 3 5 14 2 12 -2 24 0 27 6 4 5 9 9 12
9 3 0 0 -6 -6 -14z m62 -1 c-3 -9 -8 -14 -10 -11 -3 3 -2 9 2 15 9 16 15 13 8
-4z m-2248 -4 c-9 -8 -36 -10 -30 -2 2 4 11 8 20 8 8 0 13 -3 10 -6z m368 -11
c10 -12 9 -12 -4 -2 -9 6 -18 9 -21 6 -3 -3 -9 -1 -12 4 -9 15 22 8 37 -8z
m74 8 c11 -19 13 -39 2 -32 -5 3 -7 9 -4 14 3 5 -3 13 -12 19 -10 6 -13 11 -6
11 6 0 15 -6 20 -12z m93 6 c0 -8 -19 -13 -24 -6 -3 5 1 9 9 9 8 0 15 -2 15
-3z m124 -2 c3 -5 -1 -9 -9 -9 -8 0 -12 4 -9 9 3 4 7 8 9 8 2 0 6 -4 9 -8z
m271 -2 c3 -5 1 -10 -4 -10 -6 0 -11 5 -11 10 0 6 2 10 4 10 3 0 8 -4 11 -10z
m300 0 c3 -5 1 -10 -4 -10 -6 0 -11 5 -11 10 0 6 2 10 4 10 3 0 8 -4 11 -10z
m85 1 c0 -6 -4 -12 -8 -15 -5 -3 -9 1 -9 9 0 8 4 15 9 15 4 0 8 -4 8 -9z m126
-3 c3 -4 -1 -5 -10 -4 -8 1 -18 5 -22 8 -3 4 1 5 10 4 8 -1 18 -5 22 -8z m148
4 c2 -4 -5 -9 -17 -9 -17 -2 -19 0 -7 7 18 12 18 12 24 2z m95 -6 c8 -10 9
-16 1 -21 -6 -4 -9 -1 -8 7 2 7 -4 13 -12 13 -8 0 -14 -6 -12 -13 1 -8 -2 -11
-8 -7 -11 7 5 35 20 35 4 0 13 -6 19 -14z m52 1 c-6 -8 -9 -16 -6 -19 3 -2 -2
-5 -10 -5 -13 0 -13 3 2 19 19 21 31 25 14 5z m39 3 c0 -5 -5 -10 -11 -10 -5
0 -7 5 -4 10 3 6 8 10 11 10 2 0 4 -4 4 -10z m-805 -9 c3 -5 2 -12 -3 -15 -5
-3 -9 1 -9 9 0 17 3 19 12 6z m-639 -37 c0 -13 -2 -22 -5 -19 -3 3 -6 17 -7
31 0 13 2 22 5 19 3 -3 6 -17 7 -31z m84 28 c0 -5 -7 -9 -15 -9 -8 0 -12 4 -9
9 3 4 9 8 15 8 5 0 9 -4 9 -8z m684 0 c3 -5 -1 -9 -9 -9 -8 0 -15 4 -15 9 0 4
4 8 9 8 6 0 12 -4 15 -8z m396 0 c0 -5 -7 -9 -15 -9 -8 0 -12 4 -9 9 3 4 9 8
15 8 5 0 9 -4 9 -8z m324 0 c3 -5 -1 -9 -9 -9 -8 0 -15 4 -15 9 0 4 4 8 9 8 6
0 12 -4 15 -8z m73 -7 c0 -8 -4 -12 -9 -9 -5 3 -6 10 -3 15 9 13 12 11 12 -6z
m-1617 -16 c0 -5 -4 -9 -8 -9 -5 0 -9 7 -9 15 0 8 4 12 9 9 4 -3 8 -9 8 -15z
m277 6 c0 -8 -4 -15 -9 -15 -10 0 -11 14 -1 23 9 10 10 9 10 -8z m114 1 c-12
-14 -35 -16 -47 -3 -4 3 3 5 14 2 12 -2 24 0 27 6 4 5 9 9 12 9 3 0 0 -6 -6
-14z m384 5 c3 -5 2 -12 -3 -15 -5 -3 -9 1 -9 9 0 17 3 19 12 6z m482 -6 c0
-8 -4 -12 -9 -9 -5 3 -6 10 -3 15 9 13 12 11 12 -6z m41 -10 c-3 -3 -9 2 -12
12 -6 14 -5 15 5 6 7 -7 10 -15 7 -18z m197 16 c3 -5 2 -12 -3 -15 -5 -3 -9 1
-9 9 0 17 3 19 12 6z m336 -5 c-12 -14 -35 -16 -47 -3 -4 3 3 5 14 2 12 -2 24
0 27 6 4 5 9 9 12 9 3 0 0 -6 -6 -14z m-2374 -13 c0 -9 -4 -10 -12 -3 -7 5
-14 7 -17 4 -3 -3 -8 -1 -11 3 -3 5 5 9 17 9 12 0 23 -6 23 -13z m280 10 c-4
-3 -1 -13 6 -22 11 -14 10 -14 -5 -2 -16 12 -16 31 -1 31 4 0 3 -3 0 -7z m177
-2 c-8 -8 -34 -10 -38 -2 -3 4 6 7 19 7 14 0 22 -2 19 -5z m322 -3 c3 -4 -2
-5 -13 -4 -10 2 -25 -2 -33 -8 -13 -9 -13 -9 -2 6 12 16 35 18 48 6z m298 3
c3 -5 -2 -15 -12 -22 -15 -12 -16 -12 -5 2 7 9 10 19 6 22 -3 4 -4 7 0 7 3 0
8 -4 11 -9z m410 1 c3 -5 -1 -9 -9 -9 -8 0 -12 4 -9 9 3 4 7 8 9 8 2 0 6 -4 9
-8z m31 -2 c3 -5 1 -10 -4 -10 -6 0 -11 5 -11 10 0 6 2 10 4 10 3 0 8 -4 11
-10z m85 -2 c0 -4 -4 -8 -9 -8 -6 0 -12 4 -15 8 -3 5 1 9 9 9 8 0 15 -4 15 -9z
m40 6 c0 -8 -19 -13 -24 -6 -3 5 1 9 9 9 8 0 15 -2 15 -3z m240 0 c0 -8 -19
-13 -24 -6 -3 5 1 9 9 9 8 0 15 -2 15 -3z m336 -6 c3 -4 -2 -5 -13 -4 -10 2
-25 -2 -33 -8 -13 -9 -13 -9 -2 6 12 16 35 18 48 6z m374 6 c0 -8 -19 -13 -24
-6 -3 5 1 9 9 9 8 0 15 -2 15 -3z m-2115 -23 c3 -5 2 -12 -3 -15 -5 -3 -9 1
-9 9 0 17 3 19 12 6z m402 -6 c0 -8 -4 -12 -9 -9 -5 3 -6 10 -3 15 9 13 12 11
12 -6z m520 -5 c1 -11 -2 -20 -7 -20 -6 0 -7 17 -1 38 3 8 7 -1 8 -18z m920 5
c0 -8 -4 -12 -9 -9 -5 3 -6 10 -3 15 9 13 12 11 12 -6z m-1921 -10 c-1 -8 -5
-17 -8 -21 -5 -4 -4 16 1 34 3 9 9 -1 7 -13z m1124 12 c0 -2 -8 -11 -18 -20
-15 -14 -19 -15 -19 -2 0 8 4 12 8 9 4 -2 10 0 14 6 6 10 15 14 15 7z m376
-12 c-1 -8 -5 -17 -8 -21 -5 -4 -4 16 1 34 3 9 9 -1 7 -13z m-1901 -4 c3 -5 2
-12 -3 -15 -5 -3 -9 1 -9 9 0 17 3 19 12 6z m629 1 c3 -5 -1 -9 -9 -9 -8 0
-12 4 -9 9 3 4 7 8 9 8 2 0 6 -4 9 -8z m41 -2 c-3 -5 -12 -10 -18 -10 -7 0 -6
4 3 10 19 12 23 12 15 0z m32 -5 c0 -8 -4 -12 -9 -9 -5 3 -6 10 -3 15 9 13 12
11 12 -6z m533 10 c0 -2 -6 -8 -13 -14 -10 -8 -14 -7 -14 2 0 8 6 14 14 14 7
0 13 -1 13 -2z m64 -3 c3 -5 -1 -9 -9 -9 -8 0 -12 4 -9 9 3 4 7 8 9 8 2 0 6
-4 9 -8z m563 -7 c0 -8 -4 -12 -9 -9 -4 3 -8 9 -8 15 0 5 4 9 8 9 5 0 9 -7 9
-15z m98 5 c3 -5 1 -10 -4 -10 -6 0 -11 5 -11 10 0 6 2 10 4 10 3 0 8 -4 11
-10z m61 -2 c4 -6 3 -8 -4 -4 -17 10 -25 -13 -11 -32 12 -16 12 -16 -6 0 -15
14 -16 20 -5 32 15 19 17 19 26 4z m-2055 -15 c13 -16 12 -17 -3 -4 -10 7 -18
15 -18 17 0 8 8 3 21 -13z m356 2 c0 -8 -4 -12 -9 -9 -5 3 -6 10 -3 15 9 13
12 11 12 -6z m1039 0 c-1 -8 -5 -17 -8 -21 -5 -4 -4 16 1 34 3 9 9 -1 7 -13z
m-912 -3 c3 -5 -1 -9 -9 -9 -8 0 -15 4 -15 9 0 4 4 8 9 8 6 0 12 -4 15 -8z
m46 2 c0 -8 -19 -13 -24 -6 -3 5 1 9 9 9 8 0 15 -2 15 -3z m506 -19 c1 -8 -5
-20 -14 -27 -15 -11 -15 -11 -6 2 6 8 10 23 8 33 -1 11 0 16 4 13 3 -4 7 -13
8 -21z m1287 13 c-6 -7 -9 -21 -8 -31 2 -9 0 -15 -5 -12 -13 8 1 55 17 55 3 0
1 -6 -4 -12z m-1767 -23 c1 -8 -1 -17 -5 -19 -4 -3 -7 6 -7 19 0 25 8 25 12 0z
m320 1 c0 -14 -3 -23 -7 -20 -6 3 -6 22 0 42 3 10 7 -2 7 -22z m559 15 c3 -5
2 -12 -3 -15 -5 -3 -9 1 -9 9 0 17 3 19 12 6z m560 0 c3 -5 2 -12 -3 -15 -5
-3 -9 1 -9 9 0 17 3 19 12 6z m-1938 -16 c0 -8 -4 -12 -9 -9 -4 3 -8 9 -8 15
0 5 4 9 8 9 5 0 9 -7 9 -15z m60 0 c0 -8 -4 -12 -9 -9 -5 3 -6 10 -3 15 9 13
12 11 12 -6z m120 8 c-4 -3 -1 -13 6 -22 11 -14 10 -14 -5 -2 -16 12 -16 31
-1 31 4 0 3 -3 0 -7z m176 -13 c10 -12 9 -12 -3 -3 -8 6 -23 9 -33 8 -9 -2
-15 0 -12 5 7 12 33 6 48 -10z m247 11 c0 -6 -4 -12 -8 -15 -5 -3 -9 1 -9 9 0
8 4 15 9 15 4 0 8 -4 8 -9z m64 0 c-8 -8 -34 -10 -38 -2 -3 4 6 7 19 7 14 0
22 -2 19 -5z m560 1 c3 -5 -1 -9 -9 -9 -8 0 -12 4 -9 9 3 4 7 8 9 8 2 0 6 -4
9 -8z m53 -9 c0 -9 -4 -10 -12 -3 -7 5 -15 7 -18 3 -4 -3 -7 -1 -7 5 0 6 8 10
18 9 10 0 19 -7 19 -14z m211 -29 c-12 -12 -17 -13 -23 -3 -5 7 -4 10 3 5 17
-10 25 13 11 32 -12 15 -11 15 6 0 18 -17 18 -19 3 -34z m49 31 c0 -8 -4 -12
-9 -9 -5 3 -6 10 -3 15 9 13 12 11 12 -6z m173 9 c0 -8 -19 -13 -24 -6 -3 5 1
9 9 9 8 0 15 -2 15 -3z m34 -2 c3 -5 -1 -9 -9 -9 -8 0 -15 4 -15 9 0 4 4 8 9
8 6 0 12 -4 15 -8z m70 0 c3 -5 -1 -9 -9 -9 -8 0 -12 4 -9 9 3 4 7 8 9 8 2 0
6 -4 9 -8z m70 0 c3 -5 -1 -9 -9 -9 -8 0 -12 4 -9 9 3 4 7 8 9 8 2 0 6 -4 9
-8z m176 -2 c0 -5 -2 -10 -4 -10 -3 0 -8 5 -11 10 -3 6 -1 10 4 10 6 0 11 -4
11 -10z m40 4 c0 -8 -19 -13 -24 -6 -3 5 1 9 9 9 8 0 15 -2 15 -3z m314 -3 c3
-5 -2 -15 -12 -22 -15 -12 -16 -12 -5 2 7 9 10 19 6 22 -3 4 -4 7 0 7 3 0 8
-4 11 -9z m-1670 -23 c-3 -4 -9 -8 -15 -8 -5 0 -9 4 -9 8 0 5 7 9 15 9 8 0 12
-4 9 -9z m840 0 c-3 -4 -9 -8 -15 -8 -5 0 -9 4 -9 8 0 5 7 9 15 9 8 0 12 -4 9
-9z m600 0 c-3 -4 -9 -8 -15 -8 -5 0 -9 4 -9 8 0 5 7 9 15 9 8 0 12 -4 9 -9z
m-1483 -15 c13 -16 12 -17 -3 -4 -10 7 -18 15 -18 17 0 8 8 3 21 -13z m160 0
c13 -16 12 -17 -3 -4 -10 7 -18 15 -18 17 0 8 8 3 21 -13z m781 3 c10 6 11 4
0 -7 -10 -11 -15 -10 -30 6 -15 17 -15 18 0 6 9 -7 23 -9 30 -5z m158 -7 c0
-5 -4 -9 -8 -9 -5 0 -9 7 -9 15 0 8 4 12 9 9 4 -3 8 -9 8 -15z m187 3 c-10
-10 -15 -21 -12 -24 3 -3 -3 -11 -12 -19 -16 -13 -17 -12 -4 4 7 9 10 17 6 17
-5 0 0 9 10 20 10 11 20 20 23 20 3 0 -2 -8 -11 -18z m314 1 c13 -16 12 -17
-3 -4 -17 13 -22 21 -14 21 2 0 10 -8 17 -17z m-2285 -28 c-1 -8 -5 -17 -8
-21 -4 -3 -5 2 -4 13 2 10 -2 25 -8 33 -9 13 -9 13 6 2 9 -7 15 -19 14 -27z
m581 20 c0 -8 -4 -12 -9 -9 -5 3 -6 10 -3 15 9 13 12 11 12 -6z m203 9 c0 -8
-19 -13 -24 -6 -3 5 1 9 9 9 8 0 15 -2 15 -3z m460 -9 c-5 -7 -9 -14 -7 -16 1
-2 0 -3 -2 -1 -11 7 -7 29 5 29 9 0 11 -4 4 -12z m95 5 c4 -6 1 -9 -7 -8 -7 2
-13 -4 -13 -12 0 -8 5 -14 11 -13 6 1 11 -5 11 -13 0 -12 -5 -11 -20 5 -17 17
-18 22 -7 35 15 19 17 19 25 6z m185 1 c0 -6 -4 -12 -8 -15 -5 -3 -9 1 -9 9 0
8 4 15 9 15 4 0 8 -4 8 -9z m180 -3 c0 -6 -3 -8 -7 -5 -3 4 -13 1 -22 -6 -14
-11 -14 -10 -2 6 15 20 31 22 31 5z m740 6 c0 -8 -19 -13 -24 -6 -3 5 1 9 9 9
8 0 15 -2 15 -3z m-1284 -19 c-1 -8 -5 -17 -8 -21 -5 -4 -4 16 1 34 3 9 9 -1
7 -13z m43 2 c8 -10 7 -14 -2 -14 -8 0 -14 6 -14 14 0 7 1 13 2 13 2 0 8 -6
14 -13z m-875 -5 c3 -5 -1 -9 -9 -9 -8 0 -15 4 -15 9 0 4 4 8 9 8 6 0 12 -4
15 -8z m160 0 c3 -5 -1 -9 -9 -9 -8 0 -15 4 -15 9 0 4 4 8 9 8 6 0 12 -4 15
-8z m926 3 c0 -2 -6 -8 -13 -14 -10 -8 -14 -7 -14 2 0 8 6 14 14 14 7 0 13 -1
13 -2z m26 -19 c0 -14 -3 -23 -7 -20 -6 3 -6 22 0 42 3 10 7 -2 7 -22z m608
16 c3 -5 -1 -9 -9 -9 -8 0 -15 4 -15 9 0 4 4 8 9 8 6 0 12 -4 15 -8z m73 -7
c0 -8 -4 -12 -9 -9 -5 3 -6 10 -3 15 9 13 12 11 12 -6z m243 9 c0 -8 -19 -13
-24 -6 -3 5 1 9 9 9 8 0 15 -2 15 -3z m116 -29 c-1 -8 -5 -17 -8 -21 -4 -3 -5
2 -4 13 2 10 -2 25 -8 33 -9 13 -9 13 6 2 9 -7 15 -19 14 -27z m-1201 16 c3
-5 2 -12 -3 -15 -5 -3 -9 1 -9 9 0 17 3 19 12 6z m720 0 c3 -5 2 -12 -3 -15
-5 -3 -9 1 -9 9 0 17 3 19 12 6z m222 -6 c0 -8 -4 -15 -9 -15 -10 0 -11 14 -1
23 9 10 10 9 10 -8z m99 -9 c0 -14 -3 -23 -7 -20 -6 3 -6 22 0 42 3 10 7 -2 7
-22z m-2161 5 c3 -5 2 -12 -3 -15 -5 -3 -9 1 -9 9 0 17 3 19 12 6z m98 -11
c10 -12 9 -12 -3 -3 -8 6 -23 9 -33 8 -9 -2 -15 0 -12 5 7 12 33 6 48 -10z
m151 9 c3 -3 -5 -5 -19 -5 -13 0 -22 3 -19 7 4 8 30 6 38 -2z m160 2 c-8 -8
-34 -10 -38 -2 -3 4 6 7 19 7 14 0 22 -2 19 -5z m160 0 c-8 -8 -34 -10 -38 -2
-3 4 6 7 19 7 14 0 22 -2 19 -5z m1046 3 c0 -8 -19 -13 -24 -6 -3 5 1 9 9 9 8
0 15 -2 15 -3z m30 -29 c0 -5 -5 -3 -10 5 -5 8 -10 20 -10 25 0 6 5 3 10 -5 5
-8 10 -19 10 -25z m374 24 c3 -3 -5 -5 -19 -5 -13 0 -22 3 -19 7 4 8 30 6 38
-2z m246 2 c0 -6 -4 -12 -8 -15 -5 -3 -9 1 -9 9 0 8 4 15 9 15 4 0 8 -4 8 -9z
m-1776 -23 c-3 -4 -9 -8 -15 -8 -5 0 -9 4 -9 8 0 5 7 9 15 9 8 0 12 -4 9 -9z
m160 0 c-3 -4 -9 -8 -15 -8 -5 0 -9 4 -9 8 0 5 7 9 15 9 8 0 12 -4 9 -9z m686
8 c0 -2 -8 -10 -17 -17 -16 -13 -17 -12 -4 4 13 16 21 21 21 13z m-1434 -26
c0 -12 -4 -16 -9 -11 -5 5 -6 14 -3 20 10 15 12 14 12 -9z m357 5 c-3 -9 -8
-14 -10 -11 -3 3 -2 9 2 15 9 16 15 13 8 -4z m1107 -6 c0 -5 -4 -9 -8 -9 -5 0
-9 7 -9 15 0 8 4 12 9 9 4 -3 8 -9 8 -15z m160 0 c0 -5 -4 -9 -8 -9 -5 0 -9 7
-9 15 0 8 4 12 9 9 4 -3 8 -9 8 -15z m260 0 c0 -5 -4 -9 -8 -9 -5 0 -9 7 -9
15 0 8 4 12 9 9 4 -3 8 -9 8 -15z m195 12 c3 -5 2 -12 -3 -15 -5 -3 -9 1 -9 9
0 17 3 19 12 6z m-1975 -5 c0 -3 -4 -8 -10 -11 -5 -3 -10 -1 -10 4 0 6 5 11
10 11 6 0 10 -2 10 -4z m134 -4 c3 -5 -1 -9 -9 -9 -8 0 -12 4 -9 9 3 4 7 8 9
8 2 0 6 -4 9 -8z m160 0 c3 -5 -1 -9 -9 -9 -8 0 -12 4 -9 9 3 4 7 8 9 8 2 0 6
-4 9 -8z m736 3 c0 -2 -6 -8 -13 -14 -10 -8 -14 -7 -14 2 0 8 6 14 14 14 7 0
13 -1 13 -2z m64 -3 c3 -5 -1 -9 -9 -9 -8 0 -12 4 -9 9 3 4 7 8 9 8 2 0 6 -4
9 -8z m76 4 c0 -2 -8 -10 -17 -17 -16 -13 -17 -12 -4 4 13 16 21 21 21 13z
m290 -5 c0 -6 -4 -12 -8 -15 -5 -3 -9 1 -9 9 0 8 4 15 9 15 4 0 8 -4 8 -9z
m160 0 c0 -6 -4 -12 -8 -15 -5 -3 -9 1 -9 9 0 8 4 15 9 15 4 0 8 -4 8 -9z m60
0 c0 -6 -4 -12 -8 -15 -5 -3 -9 1 -9 9 0 8 4 15 9 15 4 0 8 -4 8 -9z m670 3
c0 -8 -19 -13 -24 -6 -3 5 1 9 9 9 8 0 15 -2 15 -3z m-1113 -19 c0 -8 -4 -12
-9 -9 -5 3 -6 10 -3 15 9 13 12 11 12 -6z m-1081 -19 c0 -14 -3 -23 -7 -20 -6
3 -6 22 0 42 3 10 7 -2 7 -22z m160 0 c0 -14 -3 -23 -7 -20 -6 3 -6 22 0 42 3
10 7 -2 7 -22z m160 -1 c1 -8 -1 -17 -5 -19 -4 -3 -7 6 -7 19 0 25 8 25 12 0z
m160 0 c1 -8 -1 -17 -5 -19 -4 -3 -7 6 -7 19 0 25 8 25 12 0z m648 17 c3 -5
-1 -9 -9 -9 -8 0 -15 4 -15 9 0 4 4 8 9 8 6 0 12 -4 15 -8z m36 -2 c0 -5 -2
-10 -4 -10 -3 0 -8 5 -11 10 -3 6 -1 10 4 10 6 0 11 -4 11 -10z m795 -8 c-3
-3 -11 0 -18 7 -9 10 -8 11 6 5 10 -3 15 -9 12 -12z m45 10 c0 -5 -7 -9 -15
-9 -8 0 -12 4 -9 9 3 4 9 8 15 8 5 0 9 -4 9 -8z m-2060 -23 c0 -5 -4 -9 -8 -9
-5 0 -9 7 -9 15 0 8 4 12 9 9 4 -3 8 -9 8 -15z m160 0 c0 -5 -4 -9 -8 -9 -5 0
-9 7 -9 15 0 8 4 12 9 9 4 -3 8 -9 8 -15z m117 6 c0 -8 -4 -15 -9 -15 -10 0
-11 14 -1 23 9 10 10 9 10 -8z m160 0 c0 -8 -4 -15 -9 -15 -10 0 -11 14 -1 23
9 10 10 9 10 -8z m1539 -9 c0 -14 -3 -23 -7 -20 -6 3 -6 22 0 42 3 10 7 -2 7
-22z m-2136 8 c0 -8 -19 -13 -24 -6 -3 5 1 9 9 9 8 0 15 -2 15 -3z m1104 -2
c3 -5 -1 -9 -9 -9 -8 0 -12 4 -9 9 3 4 7 8 9 8 2 0 6 -4 9 -8z m53 -9 c0 -9
-4 -10 -12 -3 -7 5 -15 7 -18 3 -4 -3 -7 -1 -7 5 0 6 8 10 18 9 10 0 19 -7 19
-14z m63 7 c0 -5 -2 -10 -4 -10 -3 0 -8 5 -11 10 -3 6 -1 10 4 10 6 0 11 -4
11 -10z m40 4 c0 -8 -19 -13 -24 -6 -3 5 1 9 9 9 8 0 15 -2 15 -3z m604 -2 c3
-5 -1 -9 -9 -9 -8 0 -15 4 -15 9 0 4 4 8 9 8 6 0 12 -4 15 -8z m76 0 c0 -5 -7
-9 -15 -9 -8 0 -12 4 -9 9 3 4 9 8 15 8 5 0 9 -4 9 -8z m40 2 c0 -8 -19 -13
-24 -6 -3 5 1 9 9 9 8 0 15 -2 15 -3z m334 -5 c3 -3 -5 -5 -19 -5 -13 0 -22 3
-19 7 4 8 30 6 38 -2z m150 2 c-8 -8 -34 -10 -38 -2 -3 4 6 7 19 7 14 0 22 -2
19 -5z m-2369 -29 c-3 -3 -11 0 -18 7 -9 10 -8 11 6 5 10 -3 15 -9 12 -12z
m159 10 c3 -5 -1 -9 -9 -9 -8 0 -12 4 -9 9 3 4 7 8 9 8 2 0 6 -4 9 -8z m250 0
c3 -5 -1 -9 -9 -9 -8 0 -12 4 -9 9 3 4 7 8 9 8 2 0 6 -4 9 -8z m160 0 c3 -5
-1 -9 -9 -9 -8 0 -12 4 -9 9 3 4 7 8 9 8 2 0 6 -4 9 -8z m1041 -2 c-3 -5 -12
-10 -18 -10 -7 0 -6 4 3 10 19 12 23 12 15 0z m359 -2 c-3 -4 -9 -8 -15 -8 -5
0 -9 4 -9 8 0 5 7 9 15 9 8 0 12 -4 9 -9z m-787 -11 c0 -8 -6 -14 -14 -14 -9
0 -10 4 -2 14 6 7 12 13 14 13 1 0 2 -6 2 -13z m463 -8 c0 -5 -4 -9 -8 -9 -5
0 -9 7 -9 15 0 8 4 12 9 9 4 -3 8 -9 8 -15z m179 8 c8 -10 7 -14 -2 -14 -8 0
-14 6 -14 14 0 7 1 13 2 13 2 0 8 -6 14 -13z m356 4 c3 -5 2 -12 -3 -15 -5 -3
-9 1 -9 9 0 17 3 19 12 6z m166 -8 c13 -16 12 -17 -3 -4 -10 7 -18 15 -18 17
0 8 8 3 21 -13z m-2096 -2 c-9 -8 -36 -10 -30 -2 2 4 11 8 20 8 8 0 13 -3 10
-6z m66 -14 c-10 -9 -11 -8 -5 6 3 10 9 15 12 12 3 -3 0 -11 -7 -18z m741 12
c2 -2 1 -3 -1 -2 -2 2 -9 -2 -16 -7 -8 -7 -12 -5 -12 4 0 12 22 16 29 5z m178
6 c0 -2 -6 -8 -13 -14 -10 -8 -14 -7 -14 2 0 8 6 14 14 14 7 0 13 -1 13 -2z
m184 -3 c3 -5 -1 -9 -9 -9 -8 0 -12 4 -9 9 3 4 7 8 9 8 2 0 6 -4 9 -8z m160 0
c3 -5 -1 -9 -9 -9 -8 0 -12 4 -9 9 3 4 7 8 9 8 2 0 6 -4 9 -8z m175 -6 c9 -11
9 -16 0 -22 -7 -4 -9 -3 -5 4 10 17 -13 25 -32 10 -15 -12 -16 -11 -3 5 16 21
25 21 40 3z m111 10 c0 -3 -4 -8 -10 -11 -5 -3 -10 -1 -10 4 0 6 5 11 10 11 6
0 10 -2 10 -4z m137 -11 c0 -8 -4 -12 -9 -9 -5 3 -6 10 -3 15 9 13 12 11 12
-6z m383 5 c0 -5 -2 -10 -4 -10 -3 0 -8 5 -11 10 -3 6 -1 10 4 10 6 0 11 -4
11 -10z m-1424 -15 c-1 -8 -5 -17 -8 -21 -5 -4 -4 16 1 34 3 9 9 -1 7 -13z
m1081 2 c0 -8 -6 -14 -14 -14 -9 0 -10 4 -2 14 6 7 12 13 14 13 1 0 2 -6 2
-13z m39 -13 c1 -9 0 -13 -4 -10 -3 4 -7 14 -8 22 -1 9 0 13 4 10 3 -4 7 -14
8 -22z m-1911 6 c-3 -5 -12 -10 -18 -10 -7 0 -6 4 3 10 19 12 23 12 15 0z
m839 2 c3 -5 -1 -9 -9 -9 -8 0 -15 4 -15 9 0 4 4 8 9 8 6 0 12 -4 15 -8z m72
-17 c-1 -13 -4 -27 -7 -30 -5 -4 -4 41 0 53 4 10 8 -2 7 -23z m313 11 c9 -11
9 -16 -1 -22 -7 -4 -10 -4 -6 1 4 4 3 14 -3 22 -6 7 -9 13 -6 13 2 0 10 -6 16
-14z m295 6 c3 -5 -1 -9 -9 -9 -8 0 -15 4 -15 9 0 4 4 8 9 8 6 0 12 -4 15 -8z
m591 -9 c-1 -10 3 -25 9 -33 9 -13 9 -13 -6 -2 -13 10 -16 26 -9 50 4 11 9 -2
6 -15z m-2278 -8 c0 -8 -4 -15 -9 -15 -10 0 -11 14 -1 23 9 10 10 9 10 -8z
m199 -10 c1 -8 -1 -17 -5 -19 -4 -3 -7 6 -7 19 0 25 8 25 12 0z m559 13 c5 4
5 1 1 -6 -6 -10 -11 -10 -22 -1 -8 6 -14 14 -14 16 0 3 6 0 13 -6 8 -6 18 -7
22 -3z m1102 -1 c0 -7 -9 -14 -19 -14 -10 -1 -18 3 -18 8 0 6 4 8 9 4 5 -3 12
-1 16 5 8 13 12 13 12 -3z m100 -2 c0 -8 -4 -12 -9 -9 -5 3 -6 10 -3 15 9 13
12 11 12 -6z m220 0 c0 -8 -4 -15 -9 -15 -10 0 -11 14 -1 23 9 10 10 9 10 -8z
m-1920 -10 c0 -8 -4 -12 -9 -9 -4 3 -8 9 -8 15 0 5 4 9 8 9 5 0 9 -7 9 -15z
m676 -5 c10 -12 9 -12 -3 -3 -8 6 -23 9 -33 8 -9 -2 -15 0 -12 5 7 12 33 6 48
-10z m311 9 c3 -3 -5 -5 -19 -5 -13 0 -22 3 -19 7 4 8 30 6 38 -2z m566 5 c0
-8 -19 -13 -24 -6 -3 5 1 9 9 9 8 0 15 -2 15 -3z m324 -5 c3 -3 -5 -5 -19 -5
-13 0 -22 3 -19 7 4 8 30 6 38 -2z m-1976 -24 c-3 -3 -9 2 -12 12 -6 14 -5 15
5 6 7 -7 10 -15 7 -18z m1761 12 c8 -10 7 -14 -2 -14 -8 0 -14 6 -14 14 0 7 1
13 2 13 2 0 8 -6 14 -13z m-1124 -6 c3 -5 2 -12 -3 -15 -5 -3 -9 1 -9 9 0 17
3 19 12 6z m319 1 c3 -5 -1 -9 -9 -9 -8 0 -12 4 -9 9 3 4 7 8 9 8 2 0 6 -4 9
-8z m46 -4 c0 -4 -4 -8 -9 -8 -6 0 -12 4 -15 8 -3 5 1 9 9 9 8 0 15 -4 15 -9z
m35 3 c3 -5 2 -12 -3 -15 -5 -3 -9 1 -9 9 0 17 3 19 12 6z m1165 -3 c0 -4 -4
-8 -9 -8 -6 0 -12 4 -15 8 -3 5 1 9 9 9 8 0 15 -4 15 -9z m-581 -11 c8 -10 7
-14 -2 -14 -8 0 -14 6 -14 14 0 7 1 13 2 13 2 0 8 -6 14 -13z m316 4 c3 -5 2
-12 -3 -15 -5 -3 -9 1 -9 9 0 17 3 19 12 6z m-1865 -7 c0 -8 -19 -13 -24 -6
-3 5 1 9 9 9 8 0 15 -2 15 -3z m25 -3 c3 -5 2 -12 -3 -15 -5 -3 -9 1 -9 9 0
17 3 19 12 6z m720 0 c3 -5 2 -12 -3 -15 -5 -3 -9 1 -9 9 0 17 3 19 12 6z m40
-9 c-3 -3 -11 0 -18 7 -9 10 -8 11 6 5 10 -3 15 -9 12 -12z m259 10 c3 -5 -1
-9 -9 -9 -8 0 -12 4 -9 9 3 4 7 8 9 8 2 0 6 -4 9 -8z m586 2 c0 -8 -19 -13
-24 -6 -3 5 1 9 9 9 8 0 15 -2 15 -3z m124 -2 c3 -5 -1 -9 -9 -9 -8 0 -12 4
-9 9 3 4 7 8 9 8 2 0 6 -4 9 -8z m73 -9 c0 -9 -4 -10 -14 -2 -7 6 -13 12 -13
14 0 1 6 2 13 2 8 0 14 -6 14 -14z m83 13 c0 -2 -7 -7 -16 -10 -8 -3 -12 -2
-9 4 6 10 25 14 25 6z m177 -21 c0 -8 -4 -12 -9 -9 -5 3 -6 10 -3 15 9 13 12
11 12 -6z m-1481 -30 c-1 -8 -5 -17 -8 -21 -4 -3 -5 2 -4 13 2 10 -2 25 -8 33
-9 13 -9 13 6 2 9 -7 15 -19 14 -27z m320 10 c-1 -13 -4 -27 -7 -30 -5 -4 -4
41 0 53 4 10 8 -2 7 -23z m441 18 c-4 -3 -1 -13 6 -22 11 -14 10 -14 -5 -2
-16 12 -16 31 -1 31 4 0 3 -3 0 -7z m320 -10 c0 -9 -4 -10 -14 -2 -7 6 -13 12
-13 14 0 1 6 2 13 2 8 0 14 -6 14 -14z m478 8 c3 -5 2 -12 -3 -15 -5 -3 -9 1
-9 9 0 17 3 19 12 6z m-1135 -22 c0 -5 -4 -9 -8 -9 -5 0 -9 7 -9 15 0 8 4 12
9 9 4 -3 8 -9 8 -15z m936 -3 c0 -14 -3 -23 -7 -20 -6 3 -6 22 0 42 3 10 7 -2
7 -22z m-1902 5 c-8 -8 -34 -10 -38 -2 -3 4 6 7 19 7 14 0 22 -2 19 -5z m77
-8 c12 -16 12 -17 -2 -6 -9 7 -20 9 -24 5 -5 -4 -5 -1 -1 6 9 16 11 15 27 -5z
m306 10 c-4 -3 -1 -13 6 -22 11 -14 10 -14 -5 -2 -16 12 -16 31 -1 31 4 0 3
-3 0 -7z m337 -2 c-8 -8 -34 -10 -38 -2 -3 4 6 7 19 7 14 0 22 -2 19 -5z m43
-6 c0 -8 -4 -12 -9 -9 -4 3 -8 9 -8 15 0 5 4 9 8 9 5 0 9 -7 9 -15z m276 -5
c10 -12 9 -12 -3 -3 -8 6 -23 9 -33 8 -9 -2 -15 0 -12 5 7 12 33 6 48 -10z
m158 3 c12 -16 12 -17 -2 -6 -9 7 -20 9 -24 5 -5 -4 -5 -1 -1 6 9 16 11 15 27
-5z m189 9 c0 -5 -7 -9 -15 -9 -8 0 -12 4 -9 9 3 4 9 8 15 8 5 0 9 -4 9 -8z
m195 -1 c3 -5 2 -12 -3 -15 -5 -3 -9 1 -9 9 0 17 3 19 12 6z m125 -3 c0 -6 -3
-8 -7 -5 -3 4 -11 2 -18 -3 -8 -7 -12 -6 -12 3 0 7 9 14 19 14 10 1 18 -3 18
-9z m34 4 c3 -5 -1 -9 -9 -9 -8 0 -12 4 -9 9 3 4 7 8 9 8 2 0 6 -4 9 -8z m223
-7 c0 -8 -4 -12 -9 -9 -4 3 -8 9 -8 15 0 5 4 9 8 9 5 0 9 -7 9 -15z m107 4 c3
-3 -5 -5 -19 -5 -13 0 -22 3 -19 7 4 8 30 6 38 -2z m-2128 -14 c-1 -8 -8 -21
-16 -28 -10 -10 -11 -9 -4 3 5 8 9 18 10 23 3 14 4 17 8 17 2 0 3 -7 2 -15z
m961 2 c0 -8 -6 -14 -14 -14 -9 0 -10 4 -2 14 6 7 12 13 14 13 1 0 2 -6 2 -13z
m-997 -9 c0 -4 -4 -8 -9 -8 -6 0 -12 4 -15 8 -3 5 1 9 9 9 8 0 15 -4 15 -9z
m1591 -12 c-15 -15 -24 -17 -32 -9 -8 8 -6 11 7 10 11 -1 18 3 17 9 -1 6 5 11
13 11 12 0 10 -5 -5 -21z m46 17 c-4 -3 -1 -13 6 -22 11 -14 10 -14 -5 -2 -16
12 -16 31 -1 31 4 0 3 -3 0 -7z m238 -2 c-3 -6 3 -14 12 -20 10 -6 13 -11 7
-11 -15 0 -36 25 -27 33 10 10 15 8 8 -2z m49 -3 c-3 -4 -9 -8 -15 -8 -5 0 -9
4 -9 8 0 5 7 9 15 9 8 0 12 -4 9 -9z m-1324 -2 c0 -2 -8 -10 -17 -17 -16 -13
-17 -12 -4 4 13 16 21 21 21 13z m156 -11 c-1 -8 -5 -17 -8 -21 -5 -4 -4 16 1
34 3 9 9 -1 7 -13z m661 0 c0 -8 -4 -15 -9 -15 -10 0 -11 14 -1 23 9 10 10 9
10 -8z m558 3 c5 4 5 1 1 -6 -6 -10 -11 -10 -22 -1 -8 6 -14 14 -14 16 0 3 6
0 13 -6 8 -6 18 -7 22 -3z m-1123 -9 c2 -2 1 -3 -1 -2 -2 2 -9 -2 -16 -7 -8
-7 -12 -5 -12 4 0 12 22 16 29 5z m66 -9 c-7 -10 -14 -17 -17 -15 -4 4 18 35
25 35 2 0 -1 -9 -8 -20z m147 11 c-9 -8 -36 -10 -30 -2 2 4 11 8 20 8 8 0 13
-3 10 -6z m439 1 c3 -5 -1 -9 -9 -9 -8 0 -15 4 -15 9 0 4 4 8 9 8 6 0 12 -4
15 -8z m176 4 c0 -3 -4 -8 -10 -11 -5 -3 -10 -1 -10 4 0 6 5 11 10 11 6 0 10
-2 10 -4z m97 -11 c0 -8 -4 -12 -9 -9 -5 3 -6 10 -3 15 9 13 12 11 12 -6z
m353 11 c0 -2 -8 -10 -17 -17 -16 -13 -17 -12 -4 4 13 16 21 21 21 13z m-1890
-24 c0 -5 -7 -9 -15 -9 -8 0 -12 4 -9 9 3 4 9 8 15 8 5 0 9 -4 9 -8z m290 2
c0 -8 -19 -13 -24 -6 -3 5 1 9 9 9 8 0 15 -2 15 -3z m274 -2 c3 -5 -1 -9 -9
-9 -8 0 -15 4 -15 9 0 4 4 8 9 8 6 0 12 -4 15 -8z m72 -16 c0 -14 -3 -23 -7
-20 -6 3 -6 22 0 42 3 10 7 -2 7 -22z m134 18 c0 -8 -19 -13 -24 -6 -3 5 1 9
9 9 8 0 15 -2 15 -3z m1154 -2 c3 -5 -1 -9 -9 -9 -8 0 -15 4 -15 9 0 4 4 8 9
8 6 0 12 -4 15 -8z m-1608 -27 c1 -8 -1 -17 -5 -19 -4 -3 -7 6 -7 19 0 25 8
25 12 0z m104 4 c0 -5 -4 -9 -8 -9 -5 0 -9 7 -9 15 0 8 4 12 9 9 4 -3 8 -9 8
-15z m376 -4 c1 -8 -1 -17 -5 -19 -4 -3 -7 6 -7 19 0 25 8 25 12 0z m104 4 c0
-5 -4 -9 -8 -9 -5 0 -9 7 -9 15 0 8 4 12 9 9 4 -3 8 -9 8 -15z m-683 -4 c0 -8
-4 -12 -9 -9 -4 3 -8 9 -8 15 0 5 4 9 8 9 5 0 9 -7 9 -15z m267 4 c3 -3 -5 -5
-19 -5 -13 0 -22 3 -19 7 4 8 30 6 38 -2z m213 -4 c0 -8 -4 -12 -9 -9 -4 3 -8
9 -8 15 0 5 4 9 8 9 5 0 9 -7 9 -15z m276 -5 c10 -12 9 -12 -3 -3 -8 6 -23 9
-33 8 -9 -2 -15 0 -12 5 7 12 33 6 48 -10z m187 11 c0 -6 -4 -12 -8 -15 -5 -3
-9 1 -9 9 0 8 4 15 9 15 4 0 8 -4 8 -9z m34 1 c3 -5 -1 -9 -9 -9 -8 0 -12 4
-9 9 3 4 7 8 9 8 2 0 6 -4 9 -8z m160 0 c3 -5 -1 -9 -9 -9 -8 0 -12 4 -9 9 3
4 7 8 9 8 2 0 6 -4 9 -8z m180 -3 c3 -3 -5 -5 -19 -5 -13 0 -22 3 -19 7 4 8
30 6 38 -2z m161 0 c3 -3 -6 -5 -19 -5 -14 1 -28 4 -31 7 -3 3 6 5 19 5 14 -1
28 -4 31 -7z m149 0 c3 -3 -5 -5 -19 -5 -13 0 -22 3 -19 7 4 8 30 6 38 -2z
m-512 -34 c2 3 5 -2 5 -10 0 -10 -4 -12 -12 -5 -7 5 -16 6 -21 2 -5 -4 -6 -3
-2 2 4 5 2 16 -4 25 -10 12 -7 12 8 -2 11 -9 23 -15 26 -12z m65 10 c0 -8 -4
-12 -9 -9 -5 3 -6 10 -3 15 9 13 12 11 12 -6z m39 -10 c1 -8 -2 -15 -6 -15 -5
0 -8 9 -7 20 1 21 10 18 13 -5z m37 7 c15 -16 15 -19 2 -19 -8 0 -13 3 -10 5
3 3 0 11 -6 19 -17 20 -5 16 14 -5z m84 3 c0 -8 -4 -12 -9 -9 -5 3 -6 10 -3
15 9 13 12 11 12 -6z m47 3 c-3 -4 -9 -8 -15 -8 -5 0 -9 4 -9 8 0 5 7 9 15 9
8 0 12 -4 9 -9z m33 5 c-4 -3 -2 -11 3 -18 7 -8 5 -12 -4 -12 -8 0 -12 7 -11
16 5 22 4 21 12 21 3 0 3 -3 0 -7z m80 -8 c0 -8 -4 -12 -9 -9 -5 3 -6 10 -3
15 9 13 12 11 12 -6z m47 3 c-3 -4 -9 -8 -15 -8 -5 0 -9 4 -9 8 0 5 7 9 15 9
8 0 12 -4 9 -9z m-1267 -13 c0 -8 -4 -12 -9 -9 -5 3 -6 10 -3 15 9 13 12 11
12 -6z m780 0 c0 -8 -4 -15 -9 -15 -10 0 -11 14 -1 23 9 10 10 9 10 -8z m576
0 c-3 -9 -8 -14 -10 -11 -3 3 -2 9 2 15 9 16 15 13 8 -4z m-1318 -4 c3 -5 2
-12 -3 -15 -5 -3 -9 1 -9 9 0 17 3 19 12 6z m642 -8 c0 -9 -4 -10 -14 -2 -7 6
-13 12 -13 14 0 1 6 2 13 2 8 0 14 -6 14 -14z m717 9 c3 -5 -1 -9 -9 -9 -8 0
-12 4 -9 9 3 4 7 8 9 8 2 0 6 -4 9 -8z m-1217 -17 c0 -8 -4 -12 -9 -9 -5 3 -6
10 -3 15 9 13 12 11 12 -6z m-353 -3 c3 -5 -1 -9 -9 -9 -8 0 -15 4 -15 9 0 4
4 8 9 8 6 0 12 -4 15 -8z m41 -2 c-3 -5 -12 -10 -18 -10 -7 0 -6 4 3 10 19 12
23 12 15 0z m439 2 c3 -5 -1 -9 -9 -9 -8 0 -15 4 -15 9 0 4 4 8 9 8 6 0 12 -4
15 -8z m41 -2 c-3 -5 -12 -10 -18 -10 -7 0 -6 4 3 10 19 12 23 12 15 0z m911
-26 c0 -13 -2 -22 -5 -19 -3 3 -6 17 -7 31 0 13 2 22 5 19 3 -3 6 -17 7 -31z
m160 12 c0 -14 -3 -23 -7 -20 -6 3 -6 22 0 42 3 10 7 -2 7 -22z m49 14 c3 -6
-1 -7 -9 -4 -18 7 -21 14 -7 14 6 0 13 -4 16 -10z m-1569 -25 c1 -8 -1 -17 -5
-19 -4 -3 -7 6 -7 19 0 25 8 25 12 0z m480 0 c1 -8 -1 -17 -5 -19 -4 -3 -7 6
-7 19 0 25 8 25 12 0z m401 10 c0 -8 -4 -12 -9 -9 -5 3 -6 10 -3 15 9 13 12
11 12 -6z m160 0 c0 -8 -4 -12 -9 -9 -5 3 -6 10 -3 15 9 13 12 11 12 -6z m60
0 c0 -8 -4 -15 -9 -15 -10 0 -11 14 -1 23 9 10 10 9 10 -8z m99 -9 c0 -14 -3
-23 -7 -20 -6 3 -6 22 0 42 3 10 7 -2 7 -22z m61 9 c0 -8 -4 -15 -9 -15 -10 0
-11 14 -1 23 9 10 10 9 10 -8z m203 -6 c0 -5 -4 -9 -8 -9 -5 0 -9 7 -9 15 0 8
4 12 9 9 4 -3 8 -9 8 -15z m-1616 0 c3 -3 -5 -5 -19 -5 -13 0 -22 3 -19 7 4 8
30 6 38 -2z m330 2 c-8 -8 -34 -10 -38 -2 -3 4 6 7 19 7 14 0 22 -2 19 -5z
m43 -6 c0 -8 -4 -12 -9 -9 -4 3 -8 9 -8 15 0 5 4 9 8 9 5 0 9 -7 9 -15z m107
4 c3 -3 -5 -5 -19 -5 -13 0 -22 3 -19 7 4 8 30 6 38 -2z m441 1 c-3 -5 -12
-10 -18 -10 -7 0 -6 4 3 10 19 12 23 12 15 0z m169 2 c3 -5 -1 -9 -9 -9 -8 0
-12 4 -9 9 3 4 7 8 9 8 2 0 6 -4 9 -8z m225 -15 c8 -10 7 -14 -2 -14 -8 0 -14
6 -14 14 0 7 1 13 2 13 2 0 8 -6 14 -13z m160 0 c8 -10 7 -14 -2 -14 -8 0 -14
6 -14 14 0 7 1 13 2 13 2 0 8 -6 14 -13z m-1239 -9 c0 -4 -4 -8 -9 -8 -6 0
-12 4 -15 8 -3 5 1 9 9 9 8 0 15 -4 15 -9z m480 0 c0 -4 -4 -8 -9 -8 -6 0 -12
4 -15 8 -3 5 1 9 9 9 8 0 15 -4 15 -9z m-707 -13 c-3 -9 -8 -14 -10 -11 -3 3
-2 9 2 15 9 16 15 13 8 -4z m264 2 c0 -8 -6 -14 -14 -14 -9 0 -10 4 -2 14 6 7
12 13 14 13 1 0 2 -6 2 -13z m213 -2 c-14 -17 -30 -20 -30 -4 0 5 4 8 9 4 5
-3 12 -1 16 5 3 5 9 10 12 10 3 0 0 -7 -7 -15z m-306 -7 c-3 -4 -9 -8 -15 -8
-5 0 -9 4 -9 8 0 5 7 9 15 9 8 0 12 -4 9 -9z m172 -14 c1 -9 0 -13 -4 -10 -3
4 -7 14 -8 22 -1 9 0 13 4 10 3 -4 7 -14 8 -22z m33 12 c9 -11 9 -16 -1 -22
-7 -4 -10 -4 -6 1 4 4 3 14 -3 22 -6 7 -9 13 -6 13 2 0 10 -6 16 -14z m52 1
c-6 -8 -9 -16 -6 -19 3 -2 -2 -5 -10 -5 -13 0 -13 3 2 19 19 21 31 25 14 5z
m533 5 c3 -5 -1 -9 -9 -9 -8 0 -12 4 -9 9 3 4 7 8 9 8 2 0 6 -4 9 -8z m160 0
c3 -5 -1 -9 -9 -9 -8 0 -12 4 -9 9 3 4 7 8 9 8 2 0 6 -4 9 -8z m-610 -20 c3
-5 -1 -9 -9 -9 -8 0 -15 4 -15 9 0 4 4 8 9 8 6 0 12 -4 15 -8z m73 -7 c0 -8
-4 -12 -9 -9 -5 3 -6 10 -3 15 9 13 12 11 12 -6z m803 9 c0 -8 -19 -13 -24 -6
-3 5 1 9 9 9 8 0 15 -2 15 -3z m-1127 -17 c4 3 7 1 7 -5 0 -6 -8 -10 -18 -9
-10 0 -19 7 -19 14 0 9 4 10 12 3 7 -5 15 -7 18 -3z m202 4 c3 -5 2 -12 -3
-15 -5 -3 -9 1 -9 9 0 17 3 19 12 6z m881 -15 c0 -14 -3 -23 -7 -20 -6 3 -6
22 0 42 3 10 7 -2 7 -22z m160 0 c0 -14 -3 -23 -7 -20 -6 3 -6 22 0 42 3 10 7
-2 7 -22z m-1352 6 c3 -5 -1 -9 -9 -9 -8 0 -12 4 -9 9 3 4 7 8 9 8 2 0 6 -4 9
-8z m31 -2 c3 -5 1 -10 -4 -10 -6 0 -11 5 -11 10 0 6 2 10 4 10 3 0 8 -4 11
-10z m125 4 c0 -8 -19 -13 -24 -6 -3 5 1 9 9 9 8 0 15 -2 15 -3z m316 -6 c4
-7 4 -10 -1 -6 -4 4 -15 2 -24 -5 -14 -11 -14 -10 -2 6 16 20 18 21 27 5z
m664 3 c0 -6 -4 -12 -8 -15 -5 -3 -9 1 -9 9 0 8 4 15 9 15 4 0 8 -4 8 -9z
m160 0 c0 -6 -4 -12 -8 -15 -5 -3 -9 1 -9 9 0 8 4 15 9 15 4 0 8 -4 8 -9z
m-1124 -36 c-1 -8 -5 -17 -8 -21 -5 -4 -4 16 1 34 3 9 9 -1 7 -13z m-39 -10
c0 -8 -4 -12 -9 -9 -4 3 -8 9 -8 15 0 5 4 9 8 9 5 0 9 -7 9 -15z m98 5 c3 -5
1 -10 -4 -10 -6 0 -11 5 -11 10 0 6 2 10 4 10 3 0 8 -4 11 -10z m61 -2 c4 -6
3 -8 -4 -4 -17 10 -25 -13 -11 -32 12 -16 12 -16 -6 0 -15 14 -16 20 -5 32 15
19 17 19 26 4z m838 -4 c3 -8 2 -12 -4 -9 -6 3 -10 10 -10 16 0 14 7 11 14 -7z
m46 10 c0 -8 -19 -13 -24 -6 -3 5 1 9 9 9 8 0 15 -2 15 -3z m114 -10 c3 -8 2
-12 -4 -9 -6 3 -10 10 -10 16 0 14 7 11 14 -7z m46 10 c0 -8 -19 -13 -24 -6
-3 5 1 9 9 9 8 0 15 -2 15 -3z m-1339 -21 c13 -16 12 -17 -3 -4 -10 7 -18 15
-18 17 0 8 8 3 21 -13z m75 -27 c-2 -38 -12 -39 -12 -1 0 18 3 32 7 30 3 -3 5
-15 5 -29z m485 21 c-6 -8 -7 -18 -3 -22 4 -5 1 -5 -6 -1 -10 6 -10 11 -1 22
6 8 14 14 16 14 3 0 0 -6 -6 -13z m-326 -6 c3 -5 2 -12 -3 -15 -5 -3 -9 1 -9
9 0 17 3 19 12 6z m-51 -9 c3 -5 -1 -9 -9 -9 -8 0 -12 4 -9 9 3 4 7 8 9 8 2 0
6 -4 9 -8z m176 -2 c0 -5 -2 -10 -4 -10 -3 0 -8 5 -11 10 -3 6 -1 10 4 10 6 0
11 -4 11 -10z m40 4 c0 -8 -19 -13 -24 -6 -3 5 1 9 9 9 8 0 15 -2 15 -3z m724
-3 c-8 -8 -34 -10 -38 -2 -3 4 6 7 19 7 14 0 22 -2 19 -5z m160 0 c-8 -8 -34
-10 -38 -2 -3 4 6 7 19 7 14 0 22 -2 19 -5z m-1167 -16 c0 -8 -4 -15 -9 -15
-10 0 -11 14 -1 23 9 10 10 9 10 -8z m1087 -7 c-3 -4 -9 -8 -15 -8 -5 0 -9 4
-9 8 0 5 7 9 15 9 8 0 12 -4 9 -9z m160 0 c-3 -4 -9 -8 -15 -8 -5 0 -9 4 -9 8
0 5 7 9 15 9 8 0 12 -4 9 -9z m-1077 -16 c-10 -10 -15 -21 -12 -24 3 -3 -3
-11 -12 -19 -16 -13 -17 -12 -4 4 7 9 10 17 6 17 -5 0 0 9 10 20 10 11 20 20
23 20 3 0 -2 -8 -11 -18z m874 1 c13 -16 12 -17 -3 -4 -17 13 -22 21 -14 21 2
0 10 -8 17 -17z m-406 -11 c-3 -3 -11 0 -18 7 -9 10 -8 11 6 5 10 -3 15 -9 12
-12z m-657 -17 c-3 -3 -9 2 -12 12 -6 14 -5 15 5 6 7 -7 10 -15 7 -18z m1458
10 c-1 -8 -5 -17 -8 -21 -5 -4 -4 16 1 34 3 9 9 -1 7 -13z m-1192 -3 c3 -5 -1
-9 -9 -9 -8 0 -15 4 -15 9 0 4 4 8 9 8 6 0 12 -4 15 -8z m73 -7 c0 -8 -4 -12
-9 -9 -5 3 -6 10 -3 15 9 13 12 11 12 -6z m243 9 c0 -8 -19 -13 -24 -6 -3 5 1
9 9 9 8 0 15 -2 15 -3z m676 -19 c1 -8 -1 -17 -5 -19 -4 -3 -7 6 -7 19 0 25 8
25 12 0z m-1041 6 c3 -5 2 -12 -3 -15 -5 -3 -9 1 -9 9 0 17 3 19 12 6z m321
-15 c0 -14 -3 -23 -7 -20 -6 3 -6 22 0 42 3 10 7 -2 7 -22z m461 9 c0 -8 -4
-15 -9 -15 -10 0 -11 14 -1 23 9 10 10 9 10 -8z m114 1 c-12 -14 -35 -16 -47
-3 -4 3 3 5 14 2 12 -2 24 0 27 6 4 5 9 9 12 9 3 0 0 -6 -6 -14z m-715 -8 c3
-4 -2 -5 -13 -4 -10 2 -25 -2 -33 -8 -13 -9 -13 -9 -2 6 12 16 35 18 48 6z
m244 3 c0 -6 -4 -12 -8 -15 -5 -3 -9 1 -9 9 0 8 4 15 9 15 4 0 8 -4 8 -9z
m294 0 c3 -5 -2 -15 -12 -22 -15 -12 -16 -12 -5 2 7 9 10 19 6 22 -3 4 -4 7 0
7 3 0 8 -4 11 -9z m123 -26 c0 -8 -4 -12 -9 -9 -5 3 -6 10 -3 15 9 13 12 11
12 -6z m127 3 c-3 -4 -9 -8 -15 -8 -5 0 -9 4 -9 8 0 5 7 9 15 9 8 0 12 -4 9
-9z m40 4 c3 -5 -1 -9 -9 -9 -8 0 -12 4 -9 9 3 4 7 8 9 8 2 0 6 -4 9 -8z
m-1064 -23 c0 -5 -4 -9 -8 -9 -5 0 -9 7 -9 15 0 8 4 12 9 9 4 -3 8 -9 8 -15z
m976 -5 c1 -9 0 -13 -4 -10 -3 4 -7 14 -8 22 -1 9 0 13 4 10 3 -4 7 -14 8 -22z
m-1065 -1 c13 -16 12 -17 -3 -5 -9 8 -23 10 -29 6 -8 -4 -9 -3 -5 4 10 17 21
15 37 -5z m594 7 c-3 -5 -12 -10 -18 -10 -7 0 -6 4 3 10 19 12 23 12 15 0z
m321 -2 c3 -4 -1 -5 -10 -4 -8 1 -18 5 -22 8 -3 4 1 5 10 4 8 -1 18 -5 22 -8z
m300 0 c3 -4 -1 -5 -10 -4 -8 1 -18 5 -22 8 -3 4 1 5 10 4 8 -1 18 -5 22 -8z
m-391 -7 c3 -5 2 -12 -3 -15 -5 -3 -9 1 -9 9 0 17 3 19 12 6z m320 0 c3 -5 2
-12 -3 -15 -5 -3 -9 1 -9 9 0 17 3 19 12 6z m-752 -13 c-6 -7 -9 -21 -8 -31 2
-9 0 -15 -5 -12 -13 8 1 55 17 55 3 0 1 -6 -4 -12z m77 4 c0 -5 -7 -9 -15 -9
-8 0 -12 4 -9 9 3 4 9 8 15 8 5 0 9 -4 9 -8z m483 -4 c-6 -7 -9 -21 -8 -31 2
-9 0 -15 -5 -12 -13 8 1 55 17 55 3 0 1 -6 -4 -12z m306 -2 c9 -11 9 -16 -1
-22 -7 -4 -10 -4 -6 1 4 4 3 14 -3 22 -6 7 -9 13 -6 13 2 0 10 -6 16 -14z
m-1145 -14 c3 -5 -1 -9 -9 -9 -8 0 -15 4 -15 9 0 4 4 8 9 8 6 0 12 -4 15 -8z
m76 0 c0 -5 -7 -9 -15 -9 -8 0 -12 4 -9 9 3 4 9 8 15 8 5 0 9 -4 9 -8z m40 2
c0 -8 -19 -13 -24 -6 -3 5 1 9 9 9 8 0 15 -2 15 -3z m334 -5 c3 -3 -5 -5 -19
-5 -13 0 -22 3 -19 7 4 8 30 6 38 -2z m222 -1 c4 -7 4 -10 -1 -6 -4 4 -15 2
-24 -5 -14 -11 -14 -10 -2 6 16 20 18 21 27 5z m338 1 c3 -3 -5 -5 -19 -5 -13
0 -22 3 -19 7 4 8 30 6 38 -2z m86 2 c0 -6 -4 -12 -8 -15 -5 -3 -9 1 -9 9 0 8
4 15 9 15 4 0 8 -4 8 -9z m-1039 -38 c13 -16 12 -17 -3 -4 -17 13 -22 21 -14
21 2 0 10 -8 17 -17z m357 -8 c-3 -3 -9 2 -12 12 -6 14 -5 15 5 6 7 -7 10 -15
7 -18z m-441 0 c0 -8 -4 -12 -9 -9 -4 3 -8 9 -8 15 0 5 4 9 8 9 5 0 9 -7 9
-15z m123 11 c0 -3 -4 -8 -10 -11 -5 -3 -10 -1 -10 4 0 6 5 11 10 11 6 0 10
-2 10 -4z m137 -11 c0 -8 -4 -12 -9 -9 -5 3 -6 10 -3 15 9 13 12 11 12 -6z
m589 3 c3 -4 -1 -5 -10 -4 -8 1 -18 5 -22 8 -3 4 1 5 10 4 8 -1 18 -5 22 -8z
m89 -33 c1 -19 -1 -32 -4 -29 -3 3 -6 21 -6 39 -1 19 1 32 4 29 3 -3 6 -21 6
-39z m36 28 c13 -16 12 -17 -3 -4 -17 13 -22 21 -14 21 2 0 10 -8 17 -17z m78
3 c9 -11 9 -16 0 -22 -7 -4 -9 -3 -5 4 3 6 -2 15 -11 21 -10 6 -13 11 -7 11 6
0 17 -6 23 -14z m167 2 c3 -4 -1 -5 -10 -4 -8 1 -18 5 -22 8 -3 4 1 5 10 4 8
-1 18 -5 22 -8z m-880 -24 c1 -9 0 -13 -4 -10 -3 4 -7 14 -8 22 -1 9 0 13 4
10 3 -4 7 -14 8 -22z m923 13 c8 -10 7 -14 -2 -14 -8 0 -14 6 -14 14 0 7 1 13
2 13 2 0 8 -6 14 -13z m-1043 -33 c0 -13 -2 -22 -5 -19 -3 3 -6 17 -7 31 0 13
2 22 5 19 3 -3 6 -17 7 -31z m84 28 c0 -5 -7 -9 -15 -9 -8 0 -12 4 -9 9 3 4 9
8 15 8 5 0 9 -4 9 -8z m395 -9 c-1 -10 3 -25 9 -33 9 -13 9 -13 -6 -2 -13 10
-16 26 -9 50 4 11 9 -2 6 -15z m325 9 c0 -5 -7 -9 -15 -9 -8 0 -12 4 -9 9 3 4
9 8 15 8 5 0 9 -4 9 -8z m-903 -17 c0 -8 -4 -15 -9 -15 -10 0 -11 14 -1 23 9
10 10 9 10 -8z m320 0 c0 -8 -4 -15 -9 -15 -10 0 -11 14 -1 23 9 10 10 9 10
-8z m-443 -3 c3 -5 -1 -9 -9 -9 -8 0 -12 4 -9 9 3 4 7 8 9 8 2 0 6 -4 9 -8z
m81 -3 c3 -3 -6 -5 -19 -5 -14 1 -28 4 -31 7 -3 3 6 5 19 5 14 -1 28 -4 31 -7z
m319 0 c3 -3 -5 -5 -19 -5 -13 0 -22 3 -19 7 4 8 30 6 38 -2z m157 -6 c12 -16
12 -17 -2 -6 -9 7 -20 9 -24 5 -5 -4 -5 -1 -1 6 9 16 11 15 27 -5z m564 6 c3
-3 -6 -5 -19 -5 -14 1 -28 4 -31 7 -3 3 6 5 19 5 14 -1 28 -4 31 -7z m-936
-12 c8 -10 7 -14 -2 -14 -8 0 -14 6 -14 14 0 7 1 13 2 13 2 0 8 -6 14 -13z
m601 -9 c0 -4 -4 -8 -9 -8 -6 0 -12 4 -15 8 -3 5 1 9 9 9 8 0 15 -4 15 -9z
m84 0 c-3 -4 -9 -8 -15 -8 -5 0 -9 4 -9 8 0 5 7 9 15 9 8 0 12 -4 9 -9z m40 4
c3 -5 -1 -9 -9 -9 -8 0 -12 4 -9 9 3 4 7 8 9 8 2 0 6 -4 9 -8z m-865 -15 c8
-10 7 -14 -2 -14 -8 0 -14 6 -14 14 0 7 1 13 2 13 2 0 8 -6 14 -13z m316 4 c3
-5 2 -12 -3 -15 -5 -3 -9 1 -9 9 0 17 3 19 12 6z m720 0 c3 -5 2 -12 -3 -15
-5 -3 -9 1 -9 9 0 17 3 19 12 6z m-790 -11 c-3 -5 -12 -10 -18 -10 -7 0 -6 4
3 10 19 12 23 12 15 0z m32 -5 c0 -8 -4 -12 -9 -9 -5 3 -6 10 -3 15 9 13 12
11 12 -6z m277 7 c3 -5 -1 -9 -9 -9 -8 0 -12 4 -9 9 3 4 7 8 9 8 2 0 6 -4 9
-8z m370 -43 c-16 -15 -21 -17 -21 -5 0 8 5 14 11 13 6 -1 11 5 11 13 0 8 -6
14 -13 12 -8 -1 -11 2 -7 9 5 8 12 6 23 -5 15 -15 15 -18 -4 -37z m82 39 c3
-4 -1 -5 -10 -4 -8 1 -18 5 -22 8 -3 4 1 5 10 4 8 -1 18 -5 22 -8z m209 3 c3
-5 2 -12 -3 -15 -5 -3 -9 1 -9 9 0 17 3 19 12 6z m-518 -16 c0 -8 -4 -12 -9
-9 -5 3 -6 10 -3 15 9 13 12 11 12 -6z m-248 -9 c9 -11 9 -16 -1 -22 -7 -4
-10 -4 -6 1 4 4 3 14 -3 22 -6 7 -9 13 -6 13 2 0 10 -6 16 -14z m527 -22 c0
-13 -2 -22 -5 -19 -3 3 -6 17 -7 31 0 13 2 22 5 19 3 -3 6 -17 7 -31z m-560 2
c0 -14 -3 -23 -7 -20 -6 3 -6 22 0 42 3 10 7 -2 7 -22z m621 9 c0 -8 -4 -15
-9 -15 -10 0 -11 14 -1 23 9 10 10 9 10 -8z m-905 -6 c2 -2 1 -3 -1 -2 -2 2
-9 -2 -16 -7 -8 -7 -12 -5 -12 4 0 12 22 16 29 5z m68 2 c0 -6 -4 -12 -8 -15
-5 -3 -9 1 -9 9 0 8 4 15 9 15 4 0 8 -4 8 -9z m64 0 c-8 -8 -34 -10 -38 -2 -3
4 6 7 19 7 14 0 22 -2 19 -5z m313 2 c-4 -3 -1 -13 6 -22 11 -14 10 -14 -5 -2
-16 12 -16 31 -1 31 4 0 3 -3 0 -7z m60 -8 c0 -8 -4 -12 -9 -9 -4 3 -8 9 -8
15 0 5 4 9 8 9 5 0 9 -7 9 -15z m116 -5 c10 -12 9 -12 -3 -3 -8 6 -23 9 -33 8
-9 -2 -15 0 -12 5 7 12 33 6 48 -10z m71 11 c-8 -8 -34 -10 -38 -2 -3 4 6 7
19 7 14 0 22 -2 19 -5z m36 5 c0 -3 -4 -8 -10 -11 -5 -3 -10 -1 -10 4 0 6 5
11 10 11 6 0 10 -2 10 -4z m277 -3 c-4 -3 -1 -13 6 -22 11 -14 10 -14 -5 -2
-16 12 -16 31 -1 31 4 0 3 -3 0 -7z m-793 -25 c-3 -4 -9 -8 -15 -8 -5 0 -9 4
-9 8 0 5 7 9 15 9 8 0 12 -4 9 -9z m-30 -27 c-2 -3 -12 3 -22 13 -16 17 -16
18 5 5 12 -7 20 -15 17 -18z m485 16 c8 -10 7 -14 -2 -14 -8 0 -14 6 -14 14 0
7 1 13 2 13 2 0 8 -6 14 -13z m-602 -12 c0 -8 -4 -12 -9 -9 -5 3 -6 10 -3 15
9 13 12 11 12 -6z m203 9 c0 -8 -19 -13 -24 -6 -3 5 1 9 9 9 8 0 15 -2 15 -3z
m145 -3 c-9 -8 -36 -10 -30 -2 2 4 11 8 20 8 8 0 13 -3 10 -6z m386 -8 c13
-16 12 -17 -3 -4 -17 13 -22 21 -14 21 2 0 10 -8 17 -17z m103 8 c-7 -8 -54
-9 -49 -1 2 3 15 6 29 6 14 0 23 -2 20 -5z m96 3 c0 -8 -19 -13 -24 -6 -3 5 1
9 9 9 8 0 15 -2 15 -3z m-474 -38 c0 -14 -3 -23 -7 -20 -6 3 -6 22 0 42 3 10
7 -2 7 -22z m441 7 c0 -9 -4 -10 -14 -2 -7 6 -13 12 -13 14 0 1 6 2 13 2 8 0
14 -6 14 -14z m-601 -18 c1 -8 -1 -17 -5 -19 -4 -3 -7 6 -7 19 0 25 8 25 12 0z
m401 10 c0 -8 -4 -12 -9 -9 -5 3 -6 10 -3 15 9 13 12 11 12 -6z m-763 -11 c3
-8 2 -12 -4 -9 -6 3 -10 10 -10 16 0 14 7 11 14 -7z m50 7 c-8 -8 -34 -10 -38
-2 -3 4 6 7 19 7 14 0 22 -2 19 -5z m160 0 c-8 -8 -34 -10 -38 -2 -3 4 6 7 19
7 14 0 22 -2 19 -5z m213 -6 c0 -8 -4 -12 -9 -9 -4 3 -8 9 -8 15 0 5 4 9 8 9
5 0 9 -7 9 -15z m453 10 c0 -2 -6 -8 -13 -14 -10 -8 -14 -7 -14 2 0 8 6 14 14
14 7 0 13 -1 13 -2z m45 -4 c3 -5 2 -12 -3 -15 -5 -3 -9 1 -9 9 0 17 3 19 12
6z m115 3 c0 -8 -19 -13 -24 -6 -3 5 1 9 9 9 8 0 15 -2 15 -3z m27 -9 c0 -8
-4 -12 -9 -9 -4 3 -8 9 -8 15 0 5 4 9 8 9 5 0 9 -7 9 -15z m-981 -21 c1 -9 0
-13 -4 -10 -3 4 -7 14 -8 22 -1 9 0 13 4 10 3 -4 7 -14 8 -22z m48 4 c-3 -4
-9 -8 -15 -8 -5 0 -9 4 -9 8 0 5 7 9 15 9 8 0 12 -4 9 -9z m33 5 c-4 -3 -2
-11 3 -18 7 -8 5 -12 -4 -12 -8 0 -12 7 -11 16 5 22 4 21 12 21 3 0 3 -3 0 -7z
m127 -5 c-3 -4 -9 -8 -15 -8 -5 0 -9 4 -9 8 0 5 7 9 15 9 8 0 12 -4 9 -9z
m276 8 c0 -2 -7 -7 -16 -10 -8 -3 -12 -2 -9 4 6 10 25 14 25 6z m40 -8 c0 -4
-4 -8 -9 -8 -6 0 -12 4 -15 8 -3 5 1 9 9 9 8 0 15 -4 15 -9z m90 7 c0 -2 -6
-8 -13 -14 -10 -8 -14 -7 -14 2 0 8 6 14 14 14 7 0 13 -1 13 -2z m34 -3 c3 -5
-1 -9 -9 -9 -8 0 -12 4 -9 9 3 4 7 8 9 8 2 0 6 -4 9 -8z m253 -17 c0 -8 -4
-15 -9 -15 -10 0 -11 14 -1 23 9 10 10 9 10 -8z m39 -11 c1 -9 0 -13 -4 -10
-3 4 -7 14 -8 22 -1 9 0 13 4 10 3 -4 7 -14 8 -22z m-1012 8 c2 -4 -4 -8 -14
-8 -10 0 -16 4 -14 8 3 4 9 8 14 8 5 0 11 -4 14 -8z m386 2 c0 -8 -19 -13 -24
-6 -3 5 1 9 9 9 8 0 15 -2 15 -3z m21 -17 c-10 -9 -11 -8 -5 6 3 10 9 15 12
12 3 -3 0 -11 -7 -18z m373 15 c3 -5 -1 -9 -9 -9 -8 0 -12 4 -9 9 3 4 7 8 9 8
2 0 6 -4 9 -8z m73 -7 c0 -8 -4 -12 -9 -9 -5 3 -6 10 -3 15 9 13 12 11 12 -6z
m63 11 c0 -3 -4 -8 -10 -11 -5 -3 -10 -1 -10 4 0 6 5 11 10 11 6 0 10 -2 10
-4z m-363 -21 c0 -8 -4 -12 -9 -9 -5 3 -6 10 -3 15 9 13 12 11 12 -6z m-486
-18 c-10 -9 -11 -8 -5 6 3 10 9 15 12 12 3 -3 0 -11 -7 -18z m45 -13 c0 -13
-2 -22 -5 -19 -3 3 -6 17 -7 31 0 13 2 22 5 19 3 -3 6 -17 7 -31z m115 13
c-10 -9 -11 -8 -5 6 3 10 9 15 12 12 3 -3 0 -11 -7 -18z m45 -2 c1 -8 -1 -17
-5 -19 -4 -3 -7 6 -7 19 0 25 8 25 12 0z m-295 -2 c13 -16 12 -17 -3 -4 -17
13 -22 21 -14 21 2 0 10 -8 17 -17z m36 2 c0 -8 -4 -15 -9 -15 -10 0 -11 14
-1 23 9 10 10 9 10 -8z m160 0 c0 -8 -4 -15 -9 -15 -10 0 -11 14 -1 23 9 10
10 9 10 -8z m277 -4 c-8 -8 -34 -10 -38 -2 -3 4 6 7 19 7 14 0 22 -2 19 -5z
m43 -6 c0 -8 -4 -12 -9 -9 -4 3 -8 9 -8 15 0 5 4 9 8 9 5 0 9 -7 9 -15z m107
4 c3 -3 -5 -5 -19 -5 -13 0 -22 3 -19 7 4 8 30 6 38 -2z m86 5 c0 -8 -19 -13
-24 -6 -3 5 1 9 9 9 8 0 15 -2 15 -3z m30 2 c0 -3 -4 -8 -10 -11 -5 -3 -10 -1
-10 4 0 6 5 11 10 11 6 0 10 -2 10 -4z m80 -8 c0 -6 -3 -8 -7 -5 -3 4 -11 2
-18 -3 -8 -7 -12 -6 -12 3 0 7 9 14 19 14 10 1 18 -3 18 -9z m34 4 c3 -5 -1
-9 -9 -9 -8 0 -12 4 -9 9 3 4 7 8 9 8 2 0 6 -4 9 -8z m160 0 c3 -5 -1 -9 -9
-9 -8 0 -12 4 -9 9 3 4 7 8 9 8 2 0 6 -4 9 -8z m-910 -20 c3 -5 -1 -9 -9 -9
-8 0 -12 4 -9 9 3 4 7 8 9 8 2 0 6 -4 9 -8z m160 0 c3 -5 -1 -9 -9 -9 -8 0
-12 4 -9 9 3 4 7 8 9 8 2 0 6 -4 9 -8z m116 -4 c0 -4 -4 -8 -9 -8 -6 0 -12 4
-15 8 -3 5 1 9 9 9 8 0 15 -4 15 -9z m517 -10 c2 -17 0 -19 -7 -8 -5 8 -6 18
-4 22 8 12 10 10 11 -14z m38 13 c3 -5 2 -12 -3 -15 -5 -3 -9 1 -9 9 0 17 3
19 12 6z m36 -8 c13 -16 12 -17 -3 -4 -10 7 -18 15 -18 17 0 8 8 3 21 -13z
m-290 -10 c13 -16 12 -17 -3 -4 -17 13 -22 21 -14 21 2 0 10 -8 17 -17z m-346
-11 c-3 -3 -11 0 -18 7 -9 10 -8 11 6 5 10 -3 15 -9 12 -12z m159 10 c3 -5 -1
-9 -9 -9 -8 0 -12 4 -9 9 3 4 7 8 9 8 2 0 6 -4 9 -8z m110 -4 c-4 -5 -9 -7
-12 -4 -3 3 -12 0 -21 -7 -14 -10 -14 -10 -4 4 13 16 46 23 37 7z m116 2 c0
-5 -2 -10 -4 -10 -3 0 -8 5 -11 10 -3 6 -1 10 4 10 6 0 11 -4 11 -10z m80 0
c0 -5 -5 -10 -11 -10 -5 0 -7 5 -4 10 3 6 8 10 11 10 2 0 4 -4 4 -10z m-424
-34 c0 -14 -3 -23 -7 -20 -6 3 -6 22 0 42 3 10 7 -2 7 -22z m168 16 c3 -5 -1
-9 -9 -9 -8 0 -15 4 -15 9 0 4 4 8 9 8 6 0 12 -4 15 -8z m72 -16 c0 -14 -3
-23 -7 -20 -6 3 -6 22 0 42 3 10 7 -2 7 -22z m264 -7 c0 -5 -4 -9 -8 -9 -5 0
-9 7 -9 15 0 8 4 12 9 9 4 -3 8 -9 8 -15z m-763 -4 c0 -8 -4 -12 -9 -9 -4 3
-8 9 -8 15 0 5 4 9 8 9 5 0 9 -7 9 -15z m677 6 c-7 -8 -54 -9 -49 -1 2 3 15 6
29 6 14 0 23 -2 20 -5z m160 0 c-8 -8 -34 -10 -38 -2 -3 4 6 7 19 7 14 0 22
-2 19 -5z m56 3 c0 -8 -19 -13 -24 -6 -3 5 1 9 9 9 8 0 15 -2 15 -3z m-194
-19 c-1 -8 -8 -21 -16 -28 -10 -10 -11 -9 -4 3 5 8 9 18 10 23 3 14 4 17 8 17
2 0 3 -7 2 -15z m-402 -3 c3 -5 -1 -9 -9 -9 -8 0 -12 4 -9 9 3 4 7 8 9 8 2 0
6 -4 9 -8z m46 -4 c0 -4 -4 -8 -9 -8 -6 0 -12 4 -15 8 -3 5 1 9 9 9 8 0 15 -4
15 -9z m194 4 c3 -5 -1 -9 -9 -9 -8 0 -12 4 -9 9 3 4 7 8 9 8 2 0 6 -4 9 -8z
m46 -4 c0 -4 -4 -8 -9 -8 -6 0 -12 4 -15 8 -3 5 1 9 9 9 8 0 15 -4 15 -9z m35
3 c3 -5 2 -12 -3 -15 -5 -3 -9 1 -9 9 0 17 3 19 12 6z m222 -14 c0 -8 -6 -14
-14 -14 -9 0 -10 4 -2 14 6 7 12 13 14 13 1 0 2 -6 2 -13z m-592 -6 c-3 -2
-16 -6 -28 -8 -15 -2 -18 0 -9 5 14 9 45 12 37 3z m150 0 c3 -5 2 -12 -3 -15
-5 -3 -9 1 -9 9 0 17 3 19 12 6z m40 -9 c-3 -3 -11 0 -18 7 -9 10 -8 11 6 5
10 -3 15 -9 12 -12z m335 12 c0 -8 -19 -13 -24 -6 -3 5 1 9 9 9 8 0 15 -2 15
-3z m-473 -19 c0 -8 -4 -12 -9 -9 -5 3 -6 10 -3 15 9 13 12 11 12 -6z m279
-20 c-1 -13 -4 -27 -7 -30 -5 -4 -4 41 0 53 4 10 8 -2 7 -23z m160 1 c0 -14
-3 -23 -7 -20 -6 3 -6 22 0 42 3 10 7 -2 7 -22z m-56 -7 c0 -5 -4 -9 -8 -9 -5
0 -9 7 -9 15 0 8 4 12 9 9 4 -3 8 -9 8 -15z m-443 -4 c0 -8 -4 -12 -9 -9 -4 3
-8 9 -8 15 0 5 4 9 8 9 5 0 9 -7 9 -15z m107 4 c3 -3 -5 -5 -19 -5 -13 0 -22
3 -19 7 4 8 30 6 38 -2z m90 2 c-8 -8 -34 -10 -38 -2 -3 4 6 7 19 7 14 0 22
-2 19 -5z m43 -6 c0 -8 -4 -12 -9 -9 -4 3 -8 9 -8 15 0 5 4 9 8 9 5 0 9 -7 9
-15z m140 -8 c0 -8 -6 -14 -14 -14 -9 0 -10 4 -2 14 6 7 12 13 14 13 1 0 2 -6
2 -13z m74 -20 c-10 -9 -11 -8 -5 6 3 10 9 15 12 12 3 -3 0 -11 -7 -18z m129
11 c0 -4 -4 -8 -9 -8 -6 0 -12 4 -15 8 -3 5 1 9 9 9 8 0 15 -4 15 -9z m-463
-11 c0 -8 -6 -14 -14 -14 -9 0 -10 4 -2 14 6 7 12 13 14 13 1 0 2 -6 2 -13z
m420 0 c0 -8 -6 -14 -14 -14 -9 0 -10 4 -2 14 6 7 12 13 14 13 1 0 2 -6 2 -13z
m-672 -6 c-9 -8 -36 -10 -30 -2 2 4 11 8 20 8 8 0 13 -3 10 -6z m71 -7 c-1 -8
-6 -17 -12 -21 -5 -4 -6 -4 -2 1 4 5 3 14 -2 21 -7 8 -5 12 4 12 8 0 13 -6 12
-13z m144 7 c0 -6 -4 -12 -8 -15 -5 -3 -9 1 -9 9 0 8 4 15 9 15 4 0 8 -4 8 -9z
m155 0 c3 -5 2 -12 -3 -15 -5 -3 -9 1 -9 9 0 17 3 19 12 6z m-338 -14 c0 -8
-6 -14 -14 -14 -9 0 -10 4 -2 14 6 7 12 13 14 13 1 0 2 -6 2 -13z m439 -32 c1
-8 -1 -17 -5 -19 -4 -3 -7 6 -7 19 0 25 8 25 12 0z m200 13 c5 4 5 3 1 -2 -12
-15 -34 -15 -34 0 0 9 4 11 12 4 7 -5 16 -6 21 -2z m-502 -7 c-7 -8 -54 -9
-49 -1 2 3 15 6 29 6 14 0 23 -2 20 -5z m80 0 c-8 -8 -34 -10 -38 -2 -3 4 6 7
19 7 14 0 22 -2 19 -5z m160 0 c-8 -8 -34 -10 -38 -2 -3 4 6 7 19 7 14 0 22
-2 19 -5z m123 -6 c0 -8 -4 -12 -9 -9 -4 3 -8 9 -8 15 0 5 4 9 8 9 5 0 9 -7 9
-15z m-101 -10 c-1 -8 -5 -17 -8 -21 -5 -4 -4 16 1 34 3 9 9 -1 7 -13z m-116
-7 c0 -4 -4 -8 -9 -8 -6 0 -12 4 -15 8 -3 5 1 9 9 9 8 0 15 -4 15 -9z m-147
-13 c-3 -9 -8 -14 -10 -11 -3 3 -2 9 2 15 9 16 15 13 8 -4z m337 -1 c0 -8 -19
-13 -24 -6 -3 5 1 9 9 9 8 0 15 -2 15 -3z m21 -17 c-10 -9 -11 -8 -5 6 3 10 9
15 12 12 3 -3 0 -11 -7 -18z m-215 -21 c0 -14 -3 -23 -7 -20 -6 3 -6 22 0 42
3 10 7 -2 7 -22z m-56 -7 c0 -5 -4 -9 -8 -9 -5 0 -9 7 -9 15 0 8 4 12 9 9 4
-3 8 -9 8 -15z m160 0 c0 -5 -4 -9 -8 -9 -5 0 -9 7 -9 15 0 8 4 12 9 9 4 -3 8
-9 8 -15z m154 2 c-8 -8 -34 -10 -38 -2 -3 4 6 7 19 7 14 0 22 -2 19 -5z
m-356 -26 c-3 -3 -9 2 -12 12 -6 14 -5 15 5 6 7 -7 10 -15 7 -18z m136 7 c3
-5 -1 -9 -9 -9 -8 0 -12 4 -9 9 3 4 7 8 9 8 2 0 6 -4 9 -8z m126 -4 c0 -4 -4
-8 -9 -8 -6 0 -12 4 -15 8 -3 5 1 9 9 9 8 0 15 -4 15 -9z m-43 -11 c0 -8 -6
-14 -14 -14 -9 0 -10 4 -2 14 6 7 12 13 14 13 1 0 2 -6 2 -13z m76 -2 c-3 -9
-8 -14 -10 -11 -3 3 -2 9 2 15 9 16 15 13 8 -4z"/>
<path d="M4695 2743 c-16 -23 -37 -51 -45 -63 -8 -12 -37 -52 -65 -89 -27 -37
-77 -104 -109 -149 -33 -45 -65 -82 -70 -82 -6 1 -36 6 -66 13 -257 60 -586
-146 -661 -413 -60 -216 63 -420 288 -479 89 -24 227 -15 322 20 143 53 235
125 312 244 45 70 54 87 82 160 15 38 19 50 34 107 7 25 16 617 11 713 l-3 60
-30 -42z"/>
</g>
</svg>
